<svg xmlns="http://www.w3.org/2000/svg" xmlns:xlink="http://www.w3.org/1999/xlink" version="1.1" x="0px" y="0px" viewBox="0 0 64 80" style="enable-background:new 0 0 64 64;" xml:space="preserve"><g><path d="M20,53c-1.654,0-3,1.346-3,3s1.346,3,3,3s3-1.346,3-3S21.654,53,20,53z M20,57c-0.552,0-1-0.448-1-1s0.448-1,1-1   s1,0.448,1,1S20.552,57,20,57z"/><path d="M62.515,27.143L53,21.434V12c0-0.352-0.185-0.677-0.485-0.857l-10-6c-0.316-0.189-0.713-0.189-1.029,0L39,6.634V6   c0-2.757-2.243-5-5-5H6C3.243,1,1,3.243,1,6v52c0,2.757,2.243,5,5,5h28c2.757,0,5-2.243,5-5V40.966l3-1.8l2,1.2v14.776   c-1.721,0.447-3,1.999-3,3.858c0,2.206,1.794,4,4,4s4-1.794,4-4c0-1.859-1.279-3.411-3-3.858V41.566l5.485,3.291   C51.644,44.952,51.822,45,52,45s0.356-0.048,0.515-0.143l10-6C62.815,38.677,63,38.352,63,38V28   C63,27.648,62.815,27.323,62.515,27.143z M47,59c0,1.103-0.897,2-2,2s-2-0.897-2-2s0.897-2,2-2S47,57.897,47,59z M52,32.834   L43.944,28l3.556-2.134l4.5-2.7L60.056,28L52,32.834z M51,21.434l-4.5,2.7l-3.5,2.1v-7.668l8-4.8V21.434z M23,29.766l8,4.8v7.668   l-8-4.8V29.766z M32,32.834L23.944,28L32,23.166l4.5,2.7L40.056,28L32,32.834z M41,26.234l-3.5-2.1l-4.5-2.7v-7.667l8,4.8V26.234z    M33,10.234l-1.515,0.909C31.185,11.323,31,11.648,31,12v4H16.858c-0.447-1.721-1.999-3-3.858-3c-2.206,0-4,1.794-4,4s1.794,4,4,4   c1.859,0,3.411-1.279,3.858-3H31v3.434l-9.515,5.709C21.185,27.323,21,27.648,21,28v10c0,0.352,0.185,0.677,0.485,0.857l10,6   C31.644,44.952,31.822,45,32,45s0.356-0.048,0.515-0.143L33,44.566V49H7V7h26V10.234z M15,17c0,1.103-0.897,2-2,2s-2-0.897-2-2   s0.897-2,2-2S15,15.897,15,17z M33,42.234v-7.668l8-4.8v7.667L33,42.234z M42,7.166L50.056,12L42,16.834L33.944,12L42,7.166z    M37,58c0,1.654-1.346,3-3,3H6c-1.654,0-3-1.346-3-3V6c0-1.654,1.346-3,3-3h28c1.654,0,3,1.346,3,3v1.834l-2,1.2V6   c0-0.553-0.447-1-1-1H6C5.447,5,5,5.447,5,6v44c0,0.553,0.447,1,1,1h28c0.553,0,1-0.447,1-1v-6.634l2-1.2V58z M43,29.766l8,4.8   v7.668l-8-4.8V29.766z M53,42.234v-7.668l8-4.8v7.667L53,42.234z"/></g></svg>