<svg xmlns="http://www.w3.org/2000/svg" xmlns:xlink="http://www.w3.org/1999/xlink" version="1.1" x="0px" y="0px" viewBox="256 346 100.1 100" enable-background="new 256 346 100.1 100" xml:space="preserve"><g><path d="M351,351c-0.9,0-2.1,0-3,0c-24.9,0-45,20.1-45,45s20.1,45,45,45c0.9,0,2.1,0,3,0 M322.5,381c-0.9,3.9-1.2,7.8-1.5,12h-11.9   c0.3-4.2,1.2-8.1,3-12H322.5z M351,393v-12 M351,375L351,375v-17.7 M334.3,367.2c2.1-3.3,4.5-5.9,6.9-7.8c1.2-0.9,2.7-1.5,4.2-2.1   V375h-14.7C331.6,372.3,332.8,369.6,334.3,367.2L334.3,367.2z M345.1,381v12h-18c0.3-4.2,0.6-8.1,1.5-12H345.1z M312.1,411.1   c-1.5-3.9-2.7-7.8-3-12h12c0.3,4.2,0.6,8.1,1.5,12H312.1z M327.1,399h18v12h-16.2C328,407.1,327.3,403.2,327.1,399z M345.1,417   v17.7c-1.5-0.3-2.7-1.2-4.2-2.1c-2.4-1.8-4.8-4.5-6.9-7.8c-1.5-2.4-2.7-4.8-3.6-7.8H345.1L345.1,417z M351,434.7V417 M351,411.1   V399 M320.4,368.5c3.3-3.3,6.9-5.7,10.7-7.5c-3,3.9-5.4,8.7-7.2,14.1h-9C316.6,372.7,318.4,370.6,320.4,368.5z M315.1,417h9   c1.8,5.4,4.2,10.2,7.2,14.1c-3.9-1.8-7.5-4.5-10.8-7.5C318.4,421.5,316.6,419.4,315.1,417z"></path></g><polygon points="297.1,393 273.9,393 273.9,383.2 261.1,395.9 261.2,396 261.1,396.1 273.9,408.9 273.9,399 297.1,399 "></polygon></svg>