<svg xmlns="http://www.w3.org/2000/svg" xmlns:xlink="http://www.w3.org/1999/xlink" version="1.1" x="0px" y="0px" viewBox="0 0 100 125" style="enable-background:new 0 0 100 100;" xml:space="preserve"><style type="text/css">
	.st0{display:none;}
	.st1{display:inline;}
	.st2{clip-path:url(#an);}
	.st3{clip-path:url(#am);}
	.st4{clip-path:url(#al);}
	.st5{clip-path:url(#ak);}
	.st6{clip-path:url(#aj);}
	.st7{clip-path:url(#c);}
	.st8{clip-path:url(#c);fill:none;stroke:#000000;stroke-width:3;stroke-miterlimit:10;}
	.st9{clip-path:url(#ai);}
	.st10{clip-path:url(#ah);}
	.st11{clip-path:url(#b);fill:none;}
	.st12{clip-path:url(#b);}
	.st13{clip-path:url(#ag);}
	.st14{clip-path:url(#af);}
	.st15{clip-path:url(#ae);}
	.st16{clip-path:url(#a);fill:#FFFFFF;}
	.st17{clip-path:url(#a);}
	.st18{clip-path:url(#ad);}
	.st19{clip-path:url(#ac);}
	.st20{clip-path:url(#ab);}
	.st21{clip-path:url(#aa);}
	.st22{clip-path:url(#z);}
	.st23{clip-path:url(#y);}
	.st24{clip-path:url(#x);}
</style><g class="st0"><g class="st1"><defs><rect id="w" x="0" width="100" height="100"/></defs><clipPath id="an"><use xlink:href="#w" style="" overflow="visible"/></clipPath><path class="st2" d="M70.5,75.8l-14.1-5.8c-0.6-0.3-0.6-1.1,0-1.4l10.3-4.2c0.8-0.3,1.5-0.5,2.3-0.5c2.4,0,4.7,1.5,5.6,3.9    c1.1,3.1-0.6,6.5-3.6,7.7L70.5,75.8C70.5,75.8,70.5,75.8,70.5,75.8z M50,6.4c-5.1,4.2-24,20.9-24,34c0,8,2.5,13.8,7.6,17.3    c-0.8-2.1-1.3-4.6-1.3-7.3c0-10.8,15.7-24.1,16.4-24.6l1.3-1.1l1.3,1.1c0.7,0.6,16.4,13.8,16.4,24.6c0,2.6-0.4,4.9-1.2,6.9    c5-3.6,7.5-9.2,7.5-16.8c0-6.1-4.3-14.1-12.5-23C56.9,12.3,52.2,8.2,50,6.4 M50,3.8c0,0,26,20.4,26,36.6c0,9.8-4,16.3-10.6,19.9    c-0.2,0.1-0.4,0.2-0.6,0.2c-0.9,0-1.7-1-1.1-1.9c1.3-2.1,2.1-4.8,2.1-8.2c0-10-15.7-23.1-15.7-23.1S34.3,40.3,34.3,50.3    c0,3.5,0.7,6.3,2.1,8.5c0.6,0.9-0.1,2-1,2c-0.2,0-0.4,0-0.6-0.1C27.9,57.2,24,50.6,24,40.4C24,24.2,50,3.8,50,3.8L50,3.8z     M50.2,43.7c-3,2.8-7.8,8.3-7.8,12.1c0,4.9,2.4,7.2,7.6,7.2c5.4,0,8-2.4,8-7.2C58,52,53.2,46.5,50.2,43.7 M50.2,41    c0,0,9.8,8.4,9.8,14.8S55.9,65,50,65s-9.6-2.8-9.6-9.2S50.2,41,50.2,41L50.2,41z M44.2,86.7l-18.9,7.8C24.5,94.9,23.8,95,23,95    c-2.4,0-4.7-1.5-5.6-4c-1.1-3.1,0.6-6.4,3.6-7.7l8.6-3.6c1-0.4,2.1-0.4,3.1,0l11.5,4.7C45.2,84.9,45.2,86.3,44.2,86.7z M26.7,87.5    c-0.8-2-3.2-3-5.2-2.2c-2,0.8-3,3.2-2.2,5.2c0.8,2,3.2,3,5.2,2.2C26.6,91.8,27.5,89.5,26.7,87.5z M84.5,91.3    c-1,2.3-3.2,3.7-5.5,3.7c-0.8,0-1.5-0.1-2.3-0.5L29.9,75.4c-3.1-1.3-4.5-4.8-3.2-7.8c1-2.3,3.2-3.7,5.5-3.7c0.8,0,1.5,0.1,2.3,0.5    l46.8,19.1C84.3,84.7,85.8,88.2,84.5,91.3z M80.5,85.3c-2-0.8-4.4,0.1-5.2,2.2c-0.8,2,0.1,4.4,2.2,5.2c2,0.8,4.4-0.1,5.2-2.2    C83.5,88.5,82.6,86.1,80.5,85.3z"/></g></g><g class="st0"><g class="st1"><defs><rect id="v" width="100" height="100"/></defs><clipPath id="am"><use xlink:href="#v" style="" overflow="visible"/></clipPath><path class="st3" d="M66,9c1.1,0,2,0.9,2,2v10c0,1.1-0.9,2-2,2H53h-0.8l-0.6,0.5L44,30.3V25v-2h-2h-6c-1.1,0-2-0.9-2-2V11    c0-1.1,0.9-2,2-2H66 M66,7H36c-2.2,0-4,1.8-4,4v10c0,2.2,1.8,4,4,4h6v5.3c0,1.2,1,2,2,2c0.5,0,0.9-0.2,1.3-0.5L53,25h13    c2.2,0,4-1.8,4-4V11C70,8.8,68.2,7,66,7L66,7z M28.8,35.6c4.4,0,8,3.6,8,8s-3.6,8-8,8s-8-3.6-8-8S24.4,35.6,28.8,35.6 M28.8,33.6    c-5.5,0-10,4.5-10,10s4.5,10,10,10s10-4.5,10-10S34.4,33.6,28.8,33.6L28.8,33.6z M28.8,63c8.5,0,14.8,8.7,14.8,16.5    c0,3.7-1.4,6.6-4.1,8.6C37,90,33.3,91,28.8,91s-8.1-1-10.7-2.9c-2.7-2-4.1-4.9-4.1-8.6C14,71.7,20.3,63,28.8,63 M28.8,61    C19.5,61,12,70.2,12,79.5S19.5,93,28.8,93s16.8-4.2,16.8-13.5S38.1,61,28.8,61L28.8,61z M70.2,35.6c4.4,0,8,3.6,8,8s-3.6,8-8,8    s-8-3.6-8-8S65.7,35.6,70.2,35.6 M70.2,33.6c-5.5,0-10,4.5-10,10s4.5,10,10,10c5.5,0,10-4.5,10-10S75.7,33.6,70.2,33.6L70.2,33.6z     M70.2,63C78.7,63,85,71.7,85,79.5c0,3.7-1.4,6.6-4.1,8.6C78.3,90,74.6,91,70.2,91s-8.1-1-10.7-2.9c-2.7-2-4.1-4.9-4.1-8.6    C55.3,71.7,61.7,63,70.2,63 M70.2,61c-9.3,0-16.8,9.2-16.8,18.5S60.9,93,70.2,93S87,88.8,87,79.5S79.5,61,70.2,61L70.2,61z M41,13    c-1.7,0-3,1.3-3,3s1.3,3,3,3s3-1.3,3-3S42.7,13,41,13z M51,13c-1.7,0-3,1.3-3,3s1.3,3,3,3s3-1.3,3-3S52.7,13,51,13z M61,13    c-1.7,0-3,1.3-3,3s1.3,3,3,3s3-1.3,3-3S62.7,13,61,13z"/></g></g><g class="st0"><g class="st1"><defs><rect id="u" width="100" height="100"/></defs><clipPath id="al"><use xlink:href="#u" style="" overflow="visible"/></clipPath><path class="st4" d="M75,77.3c-0.2,0-0.4,0-0.6,0.1c-1.7,0.6-3.1,1.7-4.1,3.2c-0.7-0.3-1.5-0.5-2.3-0.8V69.3c0-1.1-0.9-2-2-2    c-0.2,0-0.4,0-0.6,0.1c-1.7,0.6-3.1,1.7-4.1,3.2C55.5,68.5,47,67,44,67c-4.4,0-8.5,3.2-9,7.2c-1.3-0.2-2.3-0.2-3-0.2    c-4.7,0-9,3.6-9,8c0,2.2,1.1,4.2,2.7,5.7c1.7,1.4,3.9,2.3,6.3,2.3c2.2,0,7.6-0.8,12.6-2.2c0.5,1.1,1.2,2,2.1,2.8    c1.7,1.4,3.9,2.3,6.3,2.3c3,0,11.5-1.5,17.3-3.7c1,1.5,2.4,2.6,4.1,3.2c0.2,0.1,0.4,0.1,0.6,0.1c1.1,0,2-0.9,2-2V79.3    C77,78.2,76.1,77.3,75,77.3z M75,84.9v0.3v1.7l0,3.8c-1.1-0.4-2.1-1.1-2.8-2.1c-0.2-0.3-0.4-0.5-0.5-0.8c-0.2-0.3-0.3-0.6-0.4-0.9    C71.1,86.2,71,85.6,71,85c0-0.6,0.1-1.2,0.3-1.8c0.1-0.3,0.2-0.6,0.4-0.9c0.1-0.3,0.3-0.6,0.5-0.8c0.7-1,1.7-1.7,2.8-2.1l0,3.8    V84.9z M65,88.9C60.2,90.2,55,91,53,91c-2.8,0-5.3-1.6-6.4-3.7c-0.2-0.3-0.3-0.6-0.4-0.9c-0.1-0.3-0.2-0.6-0.2-1    c0-0.1,0-0.2,0-0.3c0-0.8,0.2-1.5,0.5-2.2c0.2-0.4,0.4-0.7,0.7-1c0.3-0.3,0.6-0.7,0.9-1c0.1-0.1,0.2-0.2,0.4-0.3    c0.3-0.2,0.6-0.4,0.9-0.6c0,0,0.1-0.1,0.2-0.1c0.4-0.2,0.7-0.4,1.1-0.5c0.1,0,0.1,0,0.2-0.1c0.5-0.2,1-0.3,1.5-0.3c0,0,0,0,0,0    c0.2,0,0.5,0,0.7,0c0.3,0,0.6,0,1,0c0.3,0,0.6,0,1,0.1c0,0,0.1,0,0.1,0h0c0.3,0,0.6,0.1,0.9,0.1c0.5,0.1,1.1,0.1,1.7,0.2    c0,0,0,0,0,0c0.7,0.1,1.4,0.2,2.1,0.4c0.7,0.1,1.5,0.3,2.3,0.5c0.7,0.2,1.4,0.3,2.1,0.5c0.3,0.1,0.6,0.1,0.8,0.2    c0.5,0.1,1,0.3,1.5,0.4c0.4,0.1,0.7,0.2,1.1,0.3c0.7,0.2,1.2,0.4,1.8,0.6C69.1,83.2,69,84.1,69,85s0.1,1.8,0.4,2.5    C68.2,88,66.8,88.5,65,88.9z M44,85.9C39.2,87.2,34,88,32,88c-3.7,0-7-2.8-7-6s3.3-6,7-6c0.7,0,1.8,0.1,3.1,0.3    c0.3,1.7,1.3,3.2,2.6,4.4c1.7,1.4,3.9,2.3,6.3,2.3c0.1,0,0.2,0,0.3,0c-0.2,0.6-0.3,1.3-0.3,2C44,85.3,44,85.6,44,85.9    C44,85.9,44,85.9,44,85.9z M37,75c0-0.2,0-0.3,0-0.5c0.3-3,3.4-5.5,7-5.5c2,0,7.2,0.8,12,2.1c1.8,0.5,3.2,0.9,4.4,1.4    C60.1,73.2,60,74.1,60,75s0.1,1.8,0.4,2.5c-0.2,0.1-0.5,0.2-0.8,0.3h0c-1.3-0.2-2.6-0.4-3.6-0.6c-0.3,0-0.7-0.1-1-0.1    c-0.4,0-0.7-0.1-1-0.1c-0.4,0-0.7,0-1,0c-0.1,0-0.2,0-0.3,0c-0.6,0-1.2,0.1-1.8,0.2c-0.5,0.1-1,0.3-1.4,0.5    c-0.1,0-0.2,0.1-0.2,0.1c-0.3,0.2-0.7,0.3-1,0.5c-0.4,0.2-0.7,0.4-1,0.7c-0.7,0.5-1.3,1.2-1.8,1.9c-0.5,0-1,0.1-1.3,0.1    c-3.1,0-5.8-1.9-6.7-4.4c-0.1-0.3-0.2-0.7-0.2-1.1C37,75.3,37,75.2,37,75z M63.2,71.4c0.7-1,1.7-1.7,2.8-2.1l0,3.8v1.7v0.3v1.7    l0,2.4c-0.9-0.3-1.9-0.5-2.8-0.7h0c-0.2-0.3-0.4-0.5-0.5-0.8c-0.2-0.3-0.3-0.6-0.4-0.9C62.1,76.2,62,75.6,62,75    c0-0.6,0.1-1.2,0.3-1.8c0.1-0.3,0.2-0.6,0.4-0.9C62.8,72,63,71.7,63.2,71.4z M54.7,83c0.2,0.3,0.3,0.7,0.3,1c0,0.7-0.4,1.4-1,1.7    c-0.3,0.2-0.6,0.3-1,0.3c-0.6,0-1.1-0.2-1.4-0.6c-0.2-0.2-0.4-0.5-0.5-0.9c0-0.2-0.1-0.3-0.1-0.5c0-0.2,0-0.4,0.1-0.6    c0.3-0.8,1-1.3,1.9-1.4c0,0,0,0,0,0c0.3,0,0.7,0.1,1,0.2c0,0,0,0,0,0C54.3,82.4,54.5,82.7,54.7,83z M50.3,80.2    C50.3,80.2,50.3,80.2,50.3,80.2C50.3,80.2,50.3,80.2,50.3,80.2C50.3,80.2,50.3,80.2,50.3,80.2z M42,74c0-1.1,0.9-2,2-2s2,0.9,2,2    c0,1.1-0.9,2-2,2h0c-0.3,0-0.6-0.1-0.9-0.2C42.4,75.5,42,74.8,42,74z M34,81c0,1.1-0.9,2-2,2s-2-0.9-2-2c0-1.1,0.9-2,2-2    S34,79.9,34,81z M48,49h-5v10H33V49h-5l10-10L48,49z M72,51L62,61L52,51h5V41h10v10H72z M72,11c-1.5,0-2.9,0.3-4.1,1V8    c0-0.5-0.5-1-1-1s-1,0.5-1,1v4c-1.2-0.6-2.6-1-4.1-1c-3.3,0-6.2,1.6-7.4,5c-1.3,0.1-2.5,0.4-3.6,0.9v-4c0-0.5-0.5-1-1-1    s-1,0.5-1,1v4c-1.2-0.6-2.6-1-4.1-1c-0.2,0-0.3,0-0.5,0c-1.2-3.4-4-4.9-7.3-4.9c-1.5,0-2.9,0.3-4.1,1V8c0-0.5-0.5-1-1-1    s-1,0.5-1,1v4c-1.2-0.6-2.5-0.9-4-0.9c-4.4,0-7.9,2.7-7.9,8.8c0,6.1,5,13.2,9.4,13.2c1.1,0,2-0.4,2.9-1.2c0.2-0.2,0.5-0.3,0.7-0.3    s0.5,0.1,0.7,0.3c0.8,0.8,1.8,1.2,2.9,1.2c1.1,0,2.2-0.4,3.3-1.2c1.9,3.4,4.8,6.1,7.4,6.1c1.1,0,2.1-0.4,2.9-1.2    c0.2-0.2,0.5-0.3,0.7-0.3s0.5,0.1,0.7,0.3c0.8,0.8,1.8,1.2,2.9,1.2c2.6,0,5.4-2.5,7.2-5.7c0.8,0.5,1.7,0.7,2.5,0.7    c1.1,0,2.1-0.4,2.9-1.2c0.2-0.2,0.5-0.3,0.7-0.3s0.5,0.1,0.7,0.3c0.8,0.8,1.8,1.2,2.9,1.2c4.4,0,9.4-7.1,9.4-13.2S76.4,11,72,11z     M70.5,31c-0.6,0-1-0.2-1.5-0.6c-0.6-0.5-1.3-0.8-2.1-0.8s-1.5,0.3-2.1,0.8c-0.5,0.4-1,0.6-1.5,0.6c-0.5,0-1.1-0.2-1.7-0.5    c0.8-1.8,1.3-3.8,1.3-5.7c0-5.3-2.7-8.1-6.3-8.7c0.9-2,2.7-3.1,5.3-3.1c1.5,0,2.8,0.4,3.8,1.2l1.2,1l1.2-1c1-0.8,2.3-1.2,3.8-1.2    c3.8,0,5.9,2.4,5.9,6.8C77.9,25.1,73.5,31,70.5,31z M59.1,31.1c-1.5,2.8-3.8,4.9-5.6,4.9c-0.6,0-1-0.2-1.5-0.6    c-0.6-0.5-1.3-0.8-2.1-0.8s-1.5,0.3-2.1,0.8c-0.5,0.4-1,0.6-1.5,0.6c-1.9,0-4.3-2.3-5.9-5.4c-0.2-0.3-0.3-0.6-0.5-1    c-0.1-0.3-0.3-0.7-0.4-1c-0.4-1.2-0.7-2.5-0.7-3.8c0-3.6,1.4-5.8,4-6.5c0.3-0.1,0.6-0.2,1-0.2c0.3-0.1,0.7-0.1,1-0.1    c1.5,0,2.8,0.4,3.8,1.2l1.2,1l1.2-1c0.8-0.6,1.7-1,2.9-1.1c0.3,0,0.6-0.1,1-0.1c0,0,0,0,0.1,0c0.3,0,0.7,0,1,0.1    c3.2,0.4,4.9,2.8,4.9,6.7c0,1.5-0.3,3-0.9,4.4c-0.1,0.3-0.3,0.6-0.4,1C59.5,30.5,59.3,30.8,59.1,31.1z M35.6,31.1    c-0.6,0-1-0.2-1.5-0.6c-0.6-0.5-1.3-0.8-2.1-0.8s-1.5,0.3-2.1,0.8c-0.5,0.4-0.9,0.6-1.5,0.6c-3,0-7.4-5.9-7.4-11.2    c0-4.4,2.1-6.8,5.9-6.8c1.5,0,2.8,0.4,3.8,1.2l1.2,1l1.2-1c1-0.8,2.3-1.2,3.8-1.2c2.6,0,4.4,1.1,5.3,3.2c-3.1,0.9-5.4,3.6-5.4,8.5    c0,1.7,0.4,3.6,1.1,5.3C37.2,30.7,36.4,31.1,35.6,31.1z"/></g></g><g class="st0"><g class="st1"><defs><rect id="t" width="100" height="100"/></defs><clipPath id="ak"><use xlink:href="#t" style="" overflow="visible"/></clipPath><path class="st5" d="M86,35v-8c0-8.4-13.6-15-31-15s-31,6.6-31,15v7.9c-6.2,2.7-10,6.7-10,11.1v8c0,4.5,3.8,8.4,10,11.1V73    c0,8.4,13.6,15,31,15s31-6.6,31-15v-8c0-4.5-3.8-8.4-10-11.1v-7.8C82.2,43.4,86,39.5,86,35z M84,73c0,2-1.1,3.9-3,5.7v-5.4    c0.1-0.1,0.2-0.2,0.3-0.3c1-0.8,1.9-1.7,2.7-2.6V73z M26,70.4c0.7,0.9,1.6,1.8,2.7,2.6c0.1,0.1,0.2,0.2,0.3,0.3v5.4    c-1.9-1.7-3-3.6-3-5.7V70.4z M31,80.2v-5.6c0.9,0.5,1.9,1,3,1.5v5.7C32.9,81.3,31.9,80.8,31,80.2z M36,82.7v-5.8c1,0.4,2,0.7,3,1    v5.9C37.9,83.4,36.9,83.1,36,82.7z M41,84.3v-5.9c1,0.2,2,0.4,3,0.6V85C43,84.8,42,84.6,41,84.3z M46,85.3v-6c1,0.1,2,0.2,3,0.4v6    C48,85.6,47,85.5,46,85.3z M54,86c-1,0-2-0.1-3-0.1v-6c1,0.1,2,0.1,3,0.1V86z M79,74.6v5.6c-0.9,0.6-1.9,1.1-3,1.7v-5.7    C77.1,75.6,78.1,75.1,79,74.6z M74,76.9v5.8c-0.9,0.4-1.9,0.7-3,1.1v-5.9C72,77.6,73,77.3,74,76.9z M69,78.4v5.9    c-1,0.2-2,0.5-3,0.7v-5.9C67,78.9,68,78.7,69,78.4z M64,79.4v6c-1,0.1-2,0.3-3,0.4v-6C62,79.6,63,79.5,64,79.4z M59,79.9v6    c-1,0.1-2,0.1-3,0.1v-6C57,80,58,79.9,59,79.9z M77.7,73c-5.4,3-13.6,5-22.7,5s-17.3-2-22.7-5c-3.5-2-5.8-4.4-6.2-7    c5.2,1.9,11.7,3,18.9,3c16,0,28.8-5.6,30.7-13c5.1,2.4,8.3,5.5,8.3,9C84,68,81.6,70.8,77.7,73z M69,55.6v5.6    c-0.9,0.6-1.9,1.1-3,1.7v-5.7C67.1,56.6,68.1,56.1,69,55.6z M64,57.9v5.8c-0.9,0.4-1.9,0.7-3,1.1v-5.9C62,58.6,63,58.3,64,57.9z     M59,59.4v5.9c-1,0.2-2,0.5-3,0.7v-5.9C57,59.9,58,59.7,59,59.4z M54,60.4v6c-1,0.1-2,0.3-3,0.4v-6C52,60.6,53,60.5,54,60.4z     M49,60.9v6c-1,0.1-2,0.1-3,0.1v-6C47,61,48,60.9,49,60.9z M26,61.4v-1.8v-1.7c0.4,0.1,0.8,0.3,1.1,0.4c0.4,0.1,0.7,0.2,1.1,0.4    c0.3,0.1,0.5,0.2,0.8,0.2v0.4v5.4c-1-0.3-2-0.6-2.9-1c0,0-0.1,0-0.1-0.1V61.4z M31,65.3v-5.9c1,0.2,2,0.4,3,0.6V66    C33,65.8,32,65.6,31,65.3z M36,66.3v-6c1,0.1,2,0.2,3,0.4v6C38,66.6,37,66.5,36,66.3z M44,67c-1,0-2-0.1-3-0.1v-6    c1,0.1,2,0.1,3,0.1V67z M24,57.1v5.7c-1.1-0.5-2.1-1.1-3-1.7v-5.6C21.9,56.1,22.9,56.6,24,57.1z M16,51.4c0.7,0.9,1.6,1.8,2.7,2.6    c0.1,0.1,0.2,0.2,0.3,0.3v5.4c-1.9-1.7-3-3.6-3-5.7V51.4z M70.6,52c-0.3,0.3-0.7,0.5-1,0.8c-0.4,0.3-0.8,0.5-1.2,0.8    c-0.3,0.2-0.5,0.3-0.8,0.5c-5.4,3-13.6,5-22.7,5c-4.8,0-9.4-0.6-13.4-1.5c-0.5-0.1-0.9-0.2-1.3-0.3c-0.4-0.1-0.8-0.2-1.2-0.4    c-2.5-0.8-4.7-1.7-6.6-2.8c-3.9-2.2-6.3-5-6.3-8c0-3.4,3.2-6.6,8.3-9c2,7.4,14.8,13,30.7,13c7.2,0,13.7-1.1,18.9-3    C73.6,48.8,72.4,50.5,70.6,52z M55,14c15.7,0,29,5.9,29,13c0,3-2.4,5.8-6.3,8c-1.9,1.1-4.1,2-6.6,2.8c-0.4,0.1-0.8,0.2-1.2,0.4    c-0.4,0.1-0.9,0.2-1.3,0.3c-4,1-8.6,1.5-13.4,1.5c-9.1,0-17.3-2-22.7-5c-0.3-0.2-0.5-0.3-0.8-0.5c-0.4-0.2-0.8-0.5-1.2-0.8    c-0.4-0.3-0.7-0.5-1-0.8c-2.1-1.8-3.4-3.8-3.4-6C26,19.9,39.3,14,55,14z M84,35c0,2-1.1,3.9-3,5.7v-5.4c0.1-0.1,0.2-0.2,0.3-0.3    c1-0.8,1.9-1.7,2.7-2.6V35z M74,40.6v1.8v2.3c0,0-0.1,0-0.1,0.1c-0.9,0.4-1.9,0.7-2.9,1v-5.4v-0.4c0.3-0.1,0.5-0.2,0.8-0.2    c0.4-0.1,0.7-0.2,1.1-0.4c0.4-0.1,0.8-0.3,1.1-0.4V40.6z M54,42v6c-1,0-2-0.1-3-0.1v-6C52,41.9,53,42,54,42z M49,41.7v6    c-1-0.1-2-0.2-3-0.4v-6C47,41.5,48,41.6,49,41.7z M44,41.1V47c-1-0.2-2-0.4-3-0.7v-5.9C42,40.7,43,40.9,44,41.1z M39,39.9v5.9    c-1.1-0.3-2.1-0.7-3-1.1v-5.8C37,39.3,38,39.6,39,39.9z M34,38.1v5.7c-1.1-0.5-2.1-1.1-3-1.7v-5.6C31.9,37.1,32.9,37.6,34,38.1z     M69,40.4v5.9c-1,0.2-2,0.5-3,0.7v-5.9C67,40.9,68,40.7,69,40.4z M64,41.4v6c-1,0.1-2,0.3-3,0.4v-6C62,41.6,63,41.5,64,41.4z     M59,41.9v6c-1,0.1-2,0.1-3,0.1v-6C57,42,58,41.9,59,41.9z M76,38.1c1.1-0.5,2.1-1,3-1.5v5.6c-0.9,0.6-1.9,1.1-3,1.7V38.1z     M26,32.4c0.3,0.4,0.7,0.9,1.1,1.3c0.3,0.3,0.6,0.5,0.9,0.8c0.2,0.2,0.4,0.4,0.7,0.5c0.1,0.1,0.2,0.2,0.3,0.2c0,0,0,0,0,0v5.4    c-1.5-1.4-2.5-2.9-2.9-4.4c-0.1-0.3-0.1-0.7-0.1-1.1c0-0.1,0-0.1,0-0.2v-0.9V32.4z M74,54c0,0.1,0,0.1,0,0.2    c0,0.4-0.1,0.7-0.1,1.1c-0.3,1.6-1.3,3.1-2.9,4.4v-5.4c0,0,0,0,0,0c0.1-0.1,0.2-0.2,0.3-0.2c0.2-0.2,0.4-0.4,0.7-0.5    c0.3-0.3,0.6-0.5,0.9-0.8c0.4-0.4,0.8-0.8,1.1-1.3v1.7V54z"/></g></g><g class="st0"><g class="st1"><defs><rect id="s" width="99.7" height="99.7"/></defs><clipPath id="aj"><use xlink:href="#s" style="" overflow="visible"/></clipPath><path class="st6" d="M15,22c0-0.6,0.4-1,1-1c4.6,0,8.9,1.5,12.4,4.1c-0.5,0.5-1,0.9-1.4,1.4c-3.1-2.2-6.9-3.5-11-3.5    C15.4,23,15,22.6,15,22z M16,27c3.2,0,6.1,1,8.6,2.7c0.4-0.6,0.7-1.1,1.1-1.6C23,26.1,19.6,25,16,25c-0.6,0-1,0.4-1,1    S15.4,27,16,27z M22,35.3c-1.6-1.4-3.7-2.3-6-2.3c-0.6,0-1,0.4-1,1s0.4,1,1,1c2.2,0,4.1,1,5.4,2.6C21.6,36.8,21.8,36.1,22,35.3z     M16,31c2.5,0,4.8,0.9,6.7,2.3c0.3-0.6,0.5-1.2,0.9-1.9C21.4,29.9,18.8,29,16,29c-0.6,0-1,0.4-1,1S15.4,31,16,31z M22.1,73.1    l2.8-23c0.1-0.6-0.4-1.1-1-1.1h0c-0.5,0-0.9,0.4-1,0.9l-2.8,23c-0.1,0.6,0.4,1.1,1,1.1h0C21.6,74,22,73.6,22.1,73.1z M28,73L29,50    c0-0.6-0.4-1-1-1h0c-0.5,0-1,0.4-1,1L26,73c0,0.6,0.4,1,1,1h0C27.6,74,28,73.6,28,73z M34,73L33,50c0-0.5-0.5-1-1-1h0    c-0.6,0-1,0.5-1,1L32,73c0,0.5,0.5,1,1,1h0C33.5,74,34,73.5,34,73z M39.9,72.9l-2.8-23c-0.1-0.5-0.5-0.9-1-0.9l0,0    c-0.6,0-1.1,0.5-1,1.1l2.8,23c0.1,0.5,0.5,0.9,1,0.9l0,0C39.5,74,39.9,73.5,39.9,72.9z M25,42c0-10.5,8.5-19,19-19    c0.6,0,1-0.4,1-1s-0.4-1-1-1c-11.6,0-21,9.4-21,21c0,0.6,0.4,1,1,1S25,42.6,25,42z M29,42c0-8.3,6.7-15,15-15c0.6,0,1-0.4,1-1    s-0.4-1-1-1c-9.4,0-17,7.6-17,17c0,0.6,0.4,1,1,1S29,42.6,29,42z M33,42c0-6.1,4.9-11,11-11c0.6,0,1-0.4,1-1s-0.4-1-1-1    c-7.2,0-13,5.8-13,13c0,0.6,0.4,1,1,1S33,42.6,33,42z M37,42c0-3.9,3.1-7,7-7c0.6,0,1-0.4,1-1s-0.4-1-1-1c-5,0-9,4-9,9    c0,0.6,0.4,1,1,1S37,42.6,37,42z M39,46L39,46c0-0.6-0.4-1-1-1H22c-0.6,0-1,0.4-1,1l0,0c0,0.6,0.4,1,1,1h16C38.6,47,39,46.6,39,46    z M93,33v2c0,3.1-1.4,5-3.6,5c-0.3,0-0.6,0-0.9-0.1l0,0l-1.4,7.6c-0.2,1.6-1.5,3-3.2,3.3l-0.1,0.4C83.4,55,80.6,58,77,58.8V68    c0,2.2-1.8,4-4,4s-4-1.8-4-4v-9H55.8L53,61.8V68c0,2.2-1.8,4-4,4s-4-1.8-4-4V55l0-2v-7.9c0-3.9,3.2-7.1,7.1-7.1h20.5    c-0.4-0.8-0.6-1.8-0.6-3v-2h2h2v-1c0-1.7,1.3-3,3-3s3,1.3,3,3h1c0-1.7,1.3-3,3-3s3,1.3,3,3v1h2H93z M81.9,51c-2,0-3.8-1.5-4-3.5    L76.5,40H76c-0.1,0-0.3,0-0.4,0c-0.1,0-0.3,0-0.4,0H52.1c-2.8,0-5.1,2.3-5.1,5.1V55h0v13c0,1.1,0.9,2,2,2s2-0.9,2-2v-7l4-4h16v11    c0,1.1,0.9,2,2,2s2-0.9,2-2V57h0C78.5,57,81.4,54.4,81.9,51z M91,35h-4v-1v-2c0-0.6-0.4-1-1-1s-1,0.4-1,1v2h-5v-2c0-0.6-0.4-1-1-1    s-1,0.4-1,1v2v1h-4c0,1.3,0.4,2.8,1.3,3H76l2-1l0.2,1h0l0.3,1.7l1.3,7.5l0,0l0,0c0.1,1,1.1,1.7,2.1,1.7l0.4,0H83    c1,0,2-0.8,2.1-1.8L87,37l2,1c0.1,0,0.3,0,0.4,0C90.6,38,91,36.4,91,35z"/></g></g><g class="st0"><g class="st1"><defs><rect id="r" width="100" height="100"/></defs><clipPath id="c"><use xlink:href="#r" style="" overflow="visible"/></clipPath><g class="st7"><path d="M50.1,73.2c-0.3,0-0.7,0.2-0.9,0.5L46.7,78h6.8L51,73.7C50.8,73.3,50.5,73.2,50.1,73.2L50.1,73.2z"/></g><g class="st7"><path d="M22.1,46.6v6.8l4.4-2.5c0.7-0.4,0.7-1.3,0-1.7L22.1,46.6L22.1,46.6z"/></g><g class="st7"><path d="M78.2,46.6l-4.4,2.5c-0.7,0.4-0.7,1.3,0,1.7l4.4,2.5V46.6L78.2,46.6z"/></g><path class="st8" d="M50,34"/><path class="st8" d="M50,49"/><path class="st7" d="M42,63.9L56.9,54L58,36.1L43.1,46L42,63.9z M46.5,48l7.5-4.9L53.5,52L46,56.9L46.5,48z M50,20    c-16.6,0-30,13.4-30,30s13.4,30,30,30s30-13.4,30-30S66.6,20,50,20z M50,77c-14.9,0-27-12.1-27-27c0-13.8,10.4-25.2,23.8-26.8    l2.5,4.3c0.4,0.7,1.3,0.7,1.7,0l2.5-4.3C66.7,24.9,77,36.3,77,50C77,64.9,64.9,77,50,77z"/></g></g><g class="st0"><g class="st1"><defs><rect id="q" width="100" height="100"/></defs><clipPath id="ai"><use xlink:href="#q" style="" overflow="visible"/></clipPath><path class="st9" d="M64.9,39.1c1.3-1.3,2.1-3.1,2.1-4.9V30c0-3.3-2.7-6-6-6H39c-3.3,0-6,2.7-6,6v4.1c0,1.9,0.7,3.6,2.1,4.9    l10.2,10.2c0.4,0.4,0.4,1,0,1.4L35.1,60.9C33.7,62.3,33,64,33,65.9V70c0,3.3,2.7,6,6,6h22c3.3,0,6-2.7,6-6v-4.1    c0-1.9-0.7-3.6-2.1-4.9L54.7,50.7c-0.4-0.4-0.4-1,0-1.4L64.9,39.1z M53.3,52.1l10.2,10.2c0.9,0.9,1.5,2.2,1.5,3.5V70    c0,2.2-1.8,4-4,4H39c-2.2,0-4-1.8-4-4v-4.1c0-1.3,0.5-2.6,1.5-3.5l10.2-10.2c1.2-1.2,1.2-3.1,0-4.2L36.5,37.6    c-0.9-0.9-1.5-2.2-1.5-3.5V30c0-2.2,1.8-4,4-4h22c2.2,0,4,1.8,4,4v4.1c0,1.3-0.5,2.6-1.5,3.5L53.3,47.9C52.1,49,52.1,51,53.3,52.1    z M51.4,55.4L61,65c0.7,0.7,1,1.6,1,2.5V69c0,1.1-0.9,2-2,2H40c-1.1,0-2-0.9-2-2v-1.5c0-0.9,0.4-1.8,1-2.5l9.6-9.6    C49.4,54.6,50.6,54.6,51.4,55.4z M55,41.5l-4.2,4.1c-0.5,0.4-1.2,0.4-1.6,0l-4.2-4.1c-0.7-0.7-0.2-2,0.8-2h8.3    C55.2,39.6,55.7,40.8,55,41.5z"/></g></g><g class="st0"><g class="st1"><defs><rect id="p" width="100" height="100"/></defs><clipPath id="ah"><use xlink:href="#p" style="" overflow="visible"/></clipPath><g class="st10"><path d="M77,20H23c-2.2,0-4,1.8-4,4v54c0,2.2,1.8,4,4,4h54c2.2,0,4-1.8,4-4V24C81,21.8,79.2,20,77,20z M79,78c0,1.1-0.9,2-2,2H23     c-1.1,0-2-0.9-2-2V24c0-1.1,0.9-2,2-2h54c1.1,0,2,0.9,2,2V78z M28,36.7L26,34h6l-2,2.7V44c0,0.6-0.4,1-1,1s-1-0.4-1-1V36.7z      M35,44v-7.3L33,34h6l-2,2.7V44c0,0.6-0.4,1-1,1S35,44.6,35,44z M46,34l-2,2.7V44c0,0.6-0.4,1-1,1s-1-0.4-1-1v-7.3L40,34H46z      M29.7,30L27,32v-6l2.7,2H44c0.6,0,1,0.4,1,1c0,0.6-0.4,1-1,1H29.7z M74,43c0,0.6-0.4,1-1,1H58.6L56,46v-6l2.6,2H73     C73.6,42,74,42.4,74,43z M58.7,37L56,39v-6l2.7,2H73c0.6,0,1,0.4,1,1c0,0.6-0.4,1-1,1H58.7z M58.7,30L56,32v-6l2.7,2H73     c0.6,0,1,0.4,1,1c0,0.6-0.4,1-1,1H58.7z M60,57l-2,2.6V74c0,0.6-0.4,1-1,1s-1-0.4-1-1V59.6L54,57H60z M67,57l-2,2.7V74     c0,0.6-0.4,1-1,1s-1-0.4-1-1V59.7L61,57H67z M74,57l-2,2.7V74c0,0.6-0.4,1-1,1s-1-0.4-1-1V59.7L68,57H74z M45,66c0,0.6-0.4,1-1,1     H29.7L27,69v-6l2.7,2H44C44.6,65,45,65.4,45,66z M45,73c0,0.6-0.4,1-1,1H29.7L27,76v-6l2.7,2H44C44.6,72,45,72.4,45,73z M29.8,60     L27,62v-6l2.8,2H34c0.6,0,1,0.4,1,1c0,0.6-0.4,1-1,1H29.8z M44,58c0.6,0,1,0.4,1,1c0,0.6-0.4,1-1,1h-4.3L37,62v-6l2.7,2H44z      M73,52H28c-0.6,0-1-0.4-1-1c0-0.6,0.4-1,1-1h45c0.6,0,1,0.4,1,1C74,51.6,73.6,52,73,52z"/></g></g></g><g class="st0"><g class="st1"><defs><rect id="o" x="0.1" width="99.8" height="99.8"/></defs><clipPath id="b"><use xlink:href="#o" style="" overflow="visible"/></clipPath><path class="st11" d="M45,50c0-13.9,4.2-25.5,10.3-30H41c-7.6,0-14,13.7-14,30s6.4,30,14,30h14.3C49.2,75.5,45,63.9,45,50z"/><ellipse class="st11" cx="82" cy="50" rx="3" ry="8"/><path class="st12" d="M82,40h-1h-4.8c-2.1-12.9-8-22-15.2-22H41c-7.2,0-13.2,9.1-15.2,22h-5.3c-2.9,0-5,4.3-5,10s2.1,10,5,10h5.3    c2.1,12.9,8,22,15.2,22h20c7.2,0,13.2-9.1,15.2-22H82c2.9,0,5-4.3,5-10S84.9,40,82,40z M25.5,58h-5.1c-1.2,0-3-3.1-3-8s1.8-8,3-8    h5.1c-0.3,2.5-0.5,5.2-0.5,8S25.2,55.5,25.5,58z M41,80c-7.6,0-14-13.7-14-30s6.4-30,14-30h14.3C49.2,24.5,45,36.1,45,50    s4.2,25.5,10.3,30H41z M61,80c-7.6,0-14-13.7-14-30s6.4-30,14-30c6,0,11.2,8.5,13.2,20h-6.4H61c-2.9,0-5,4.3-5,10s2.1,10,5,10h6.8    h6.4C72.2,71.5,67,80,61,80z M78.9,58H67.8H61c-1.2,0-3-3.1-3-8s1.8-8,3-8h6.8h11.2c-1.2,1.8-1.9,4.7-1.9,8S77.7,56.2,78.9,58z     M82,58c-1.7,0-3-3.6-3-8s1.3-8,3-8s3,3.6,3,8S83.7,58,82,58z"/></g></g><g class="st0"><g class="st1"><defs><rect id="n" width="100" height="100"/></defs><clipPath id="ag"><use xlink:href="#n" style="" overflow="visible"/></clipPath><path class="st13" d="M77,65H50v-5.7h27c0.5,0,1-0.5,1-1c0-0.6-0.5-1-1-1h-3.8c0,0,0-0.1,0-0.1L50,17v-3c0-1.7-1.3-3-3-3    s-3,1.3-3,3v51h-2c-2.8,0-5,2.2-5,5h-6c-2.8,0-5,2.2-5,5h-6c-2.8,0-5,2.2-5,5s2.2,5,5,5h35c2.8,0,5-2.2,5-5h6c2.8,0,5-2.2,5-5h6    c2.8,0,5-2.2,5-5S79.8,65,77,65z M77,73c-1.7,0-3-1.4-3-3c0-1.7,1.3-3,3-3s3,1.3,3,3C80,71.6,78.7,73,77,73z M46,14    c0-0.5,0.5-1,1-1s1,0.5,1,1v57c0,0.5-0.5,1-1,1s-1-0.5-1-1V14z M50,21l20.9,36.3H50V21z M44,67v3h-5c0-0.5,0.1-0.9,0.3-1.3    c0.3-0.6,0.8-1.1,1.4-1.4c0.4-0.2,0.8-0.3,1.3-0.3H44z M20,83c-1.7,0-3-1.4-3-3c0-1.7,1.3-3,3-3h31c-0.6,0.8-1,1.9-1,3    s0.4,2.2,1,3H20z M55,83c-1.7,0-3-1.4-3-3c0-1.7,1.3-3,3-3s3,1.3,3,3C58,81.6,56.7,83,55,83z M59.6,78c-0.8-1.8-2.5-3-4.6-3H28    c0-0.5,0.1-0.9,0.3-1.3c0.3-0.6,0.8-1.1,1.4-1.4c0.4-0.2,0.8-0.3,1.3-0.3h13.2c0.4,1.2,1.5,2,2.8,2s2.4-0.8,2.8-2H62    c-0.6,0.8-1,1.9-1,3s0.4,2.2,1,3H59.6z M66,78c-1.7,0-3-1.4-3-3c0-1.7,1.3-3,3-3s3,1.3,3,3C69,76.6,67.7,78,66,78z M70.6,73    c-0.8-1.8-2.5-3-4.6-3H50v-3h23c-0.6,0.8-1,1.9-1,3s0.4,2.2,1,3H70.6z"/></g></g><g class="st0"><g class="st1"><defs><rect id="m" width="100" height="100"/></defs><clipPath id="af"><use xlink:href="#m" style="" overflow="visible"/></clipPath><path class="st14" d="M50,29c-1.7,0-3,1.3-3,3v46c0,1.6,1.3,3,3,3s3-1.4,3-3V32C53,30.3,51.7,29,50,29z M49,78V32c0-0.5,0.5-1,1-1    s1,0.5,1,1v46c0,0.5-0.5,1-1,1S49,78.5,49,78z M66,13H34c-2.2,0-4,1.8-4,4v66c0,2.2,1.8,4,4,4h32c2.2,0,4-1.8,4-4V17    C70,14.8,68.2,13,66,13z M68,83c0,1.1-0.9,2-2,2H34c-1.1,0-2-0.9-2-2V17c0-1.1,0.9-2,2-2h32c1.1,0,2,0.9,2,2V83z M39,18    c-2.2,0-4,1.8-4,4c0,2.2,1.8,4,4,4s4-1.8,4-4C43,19.8,41.2,18,39,18z M39,24c-1.1,0-2-0.9-2-2c0-1.1,0.9-2,2-2s2,0.9,2,2    C41,23.1,40.1,24,39,24z M50,18c-2.2,0-4,1.8-4,4c0,2.2,1.8,4,4,4s4-1.8,4-4C54,19.8,52.2,18,50,18z M50,24c-1.1,0-2-0.9-2-2    c0-1.1,0.9-2,2-2s2,0.9,2,2C52,23.1,51.1,24,50,24z M61,18c-2.2,0-4,1.8-4,4c0,2.2,1.8,4,4,4s4-1.8,4-4C65,19.8,63.2,18,61,18z     M61,24c-1.1,0-2-0.9-2-2c0-1.1,0.9-2,2-2s2,0.9,2,2C63,23.1,62.1,24,61,24z M39,29c-2.2,0-4,1.8-4,4c0,2.2,1.8,4,4,4s4-1.8,4-4    C43,30.8,41.2,29,39,29z M39,35c-1.1,0-2-0.9-2-2c0-1.1,0.9-2,2-2s2,0.9,2,2C41,34.1,40.1,35,39,35z M39,40c-2.2,0-4,1.8-4,4    c0,2.2,1.8,4,4,4s4-1.8,4-4C43,41.8,41.2,40,39,40z M39,46c-1.1,0-2-0.9-2-2s0.9-2,2-2s2,0.9,2,2S40.1,46,39,46z M39,51    c-2.2,0-4,1.8-4,4c0,2.2,1.8,4,4,4s4-1.8,4-4C43,52.8,41.2,51,39,51z M39,57c-1.1,0-2-0.9-2-2s0.9-2,2-2s2,0.9,2,2S40.1,57,39,57z     M39,62c-2.2,0-4,1.8-4,4c0,2.2,1.8,4,4,4s4-1.8,4-4C43,63.8,41.2,62,39,62z M39,68c-1.1,0-2-0.9-2-2s0.9-2,2-2s2,0.9,2,2    S40.1,68,39,68z M39,73c-2.2,0-4,1.8-4,4c0,2.2,1.8,4,4,4s4-1.8,4-4C43,74.8,41.2,73,39,73z M39,79c-1.1,0-2-0.9-2-2s0.9-2,2-2    s2,0.9,2,2S40.1,79,39,79z M61,29c-2.2,0-4,1.8-4,4c0,2.2,1.8,4,4,4s4-1.8,4-4C65,30.8,63.2,29,61,29z M61,35c-1.1,0-2-0.9-2-2    c0-1.1,0.9-2,2-2s2,0.9,2,2C63,34.1,62.1,35,61,35z M61,40c-2.2,0-4,1.8-4,4c0,2.2,1.8,4,4,4s4-1.8,4-4C65,41.8,63.2,40,61,40z     M61,46c-1.1,0-2-0.9-2-2s0.9-2,2-2s2,0.9,2,2S62.1,46,61,46z M61,51c-2.2,0-4,1.8-4,4c0,2.2,1.8,4,4,4s4-1.8,4-4    C65,52.8,63.2,51,61,51z M61,57c-1.1,0-2-0.9-2-2s0.9-2,2-2s2,0.9,2,2S62.1,57,61,57z M61,62c-2.2,0-4,1.8-4,4c0,2.2,1.8,4,4,4    s4-1.8,4-4C65,63.8,63.2,62,61,62z M61,68c-1.1,0-2-0.9-2-2s0.9-2,2-2s2,0.9,2,2S62.1,68,61,68z M61,73c-2.2,0-4,1.8-4,4    c0,2.2,1.8,4,4,4s4-1.8,4-4C65,74.8,63.2,73,61,73z M61,79c-1.1,0-2-0.9-2-2s0.9-2,2-2s2,0.9,2,2S62.1,79,61,79z"/></g></g><g class="st0"><g class="st1"><defs><rect id="l" x="0" y="-0.2" width="100" height="100"/></defs><clipPath id="ae"><use xlink:href="#l" style="" overflow="visible"/></clipPath><path class="st15" d="M11.2,66.8c-0.8,0.8-2,0.8-2.8,0c-0.8-0.8-0.8-2,0-2.8c6.1-6.1,13.5-6.1,21-4.7c0.3,1.4,0.6,2.9,0.9,4.3    C23.1,62,16.4,61.6,11.2,66.8z M90.4,30c-0.8-0.8-2-0.8-2.8,0c-5.2,5.2-11.9,4.8-19.1,3.3c0.3,1.4,0.6,2.8,0.9,4.3    c7.5,1.4,14.9,1.4,21-4.7C91.2,32.1,91.2,30.8,90.4,30z M38.2,66.8c-0.1-0.5-0.2-1.1-0.3-1.6c-0.2-1-0.5-2.1-0.7-3.1    c-0.1-0.4-0.2-0.8-0.3-1.2c-0.1-0.5-0.2-1.1-0.4-1.6c-0.1-0.5-0.2-1.1-0.3-1.6c-1.5-7.2-1.9-13.9,3.3-19.1    c5.2-5.2,11.9-4.8,19.1-3.3c-0.3-1.4-0.6-2.8-0.9-4.3c-7.5-1.4-14.9-1.4-21,4.7s-6.1,13.5-4.7,21c0.1,0.5,0.2,1.1,0.3,1.6    c0.1,0.5,0.2,1.1,0.3,1.6c0.2,1,0.5,2.1,0.7,3.1c0.1,0.4,0.2,0.8,0.3,1.2c0.1,0.5,0.2,1.1,0.4,1.6c0.1,0.5,0.2,1.1,0.3,1.6    c1.5,7.2,1.9,13.9-3.3,19.1c-0.8,0.8-0.8,2,0,2.8s2,0.8,2.8,0c6.1-6.1,6.1-13.5,4.7-21C38.5,67.9,38.4,67.3,38.2,66.8z M52.7,47.5    c0.4-0.4,0.4-1,0-1.4l-6.8-6.8c-0.4-0.4-1-0.4-1.4,0c-0.4,0.4-0.4,1,0,1.4l6.8,6.8C51.7,47.8,52.3,47.8,52.7,47.5z M68.5,16.6    l12.7,12.7c0.4,0.4,1,0.4,1.4,0c0.4-0.4,0.4-1,0-1.4L69.9,15.2c-0.4-0.4-1-0.4-1.4,0C68.1,15.6,68.1,16.2,68.5,16.6z M23.9,65.4    c-0.4,0.4-0.4,1,0,1.4l7.1,7.1c0.4,0.4,1,0.4,1.4,0c0.4-0.4,0.4-1,0-1.4l-7.1-7.1C25,65,24.3,65,23.9,65.4z M67.1,22.2    c-0.4,0.4-0.4,1,0,1.4l7.1,7.1c0.4,0.4,1,0.4,1.4,0c0.4-0.4,0.4-1,0-1.4l-7.1-7.1C68.1,21.8,67.5,21.8,67.1,22.2z M48.5,51.7    c0.4-0.4,0.4-1,0-1.4l-6.8-6.8c-0.4-0.4-1-0.4-1.4,0c-0.4,0.4-0.4,1,0,1.4l6.8,6.8C47.4,52.1,48.1,52.1,48.5,51.7z M31,79.5    L18.3,66.8c-0.4-0.4-1-0.4-1.4,0c-0.4,0.4-0.4,1,0,1.4l12.7,12.7c0.4,0.4,1,0.4,1.4,0C31.4,80.5,31.4,79.9,31,79.5z M38.8,50.5    c-0.4,0.4-0.4,1,0,1.4l7.1,7.1c0.4,0.4,1,0.4,1.4,0c0.4-0.4,0.4-1,0-1.4l-7.1-7.1C39.8,50.1,39.2,50.1,38.8,50.5z M70.5,63.1    l-1.2-1l-1.2-1c1.2-3.1,0.6-6.8-2-9.3c-0.2-0.2-0.4-0.4-0.6-0.6c-0.2-0.1-0.4-0.3-0.6-0.4c0,0-0.1-0.1-0.1-0.1    c-0.5-0.3-0.9-0.6-1.4-0.8c0,0,0,0,0,0v0c-1.1-0.5-2.2-0.7-3.4-0.7c-1,0-2,0.2-3,0.5l3.5,3.5c0.6,0.6,0.9,1.3,1,2.1    c0,0.3,0,0.5,0,0.8c0,0,0,0.1,0,0.1c0,0.2-0.1,0.4-0.1,0.7c0,0,0,0.1,0,0.1c-0.1,0.2-0.2,0.4-0.3,0.6c0,0.1-0.1,0.1-0.1,0.2    c-0.1,0.2-0.3,0.4-0.5,0.6c-0.7,0.7-1.6,1.1-2.5,1.1c0,0,0,0,0,0l0,0c-0.9,0-1.8-0.4-2.5-1.1l-3.5-3.5c-1,2.7-0.6,5.8,1.2,8.2    c0.2,0.3,0.5,0.6,0.8,0.9c0.3,0.3,0.5,0.5,0.8,0.7c0,0,0,0,0.1,0.1c1.6,1.2,3.4,1.8,5.3,1.8c1.1,0,2.1-0.2,3.1-0.6l1,1.2l1,1.2    l9.9,11.4c1.6,1.6,4.3,1.4,6.2-0.5c1.8-1.8,2.1-4.6,0.5-6.2L70.5,63.1z M49.3,62.6c-2.9,0.1-5.9-0.3-9.1-1    c0.3,1.4,0.6,2.8,0.9,4.3c3.7,0.7,7.3,1,10.8,0.5c0,0-0.1-0.1-0.1-0.1C50.7,65.1,49.9,63.9,49.3,62.6z M60.6,30    c0.1,0.5,0.2,1.1,0.3,1.6c0.2,1,0.5,2.1,0.7,3.1c0.1,0.4,0.2,0.8,0.3,1.2c0.1,0.5,0.2,1.1,0.4,1.6c0.1,0.5,0.2,1.1,0.3,1.6    c0.5,2.6,0.9,5.2,1,7.7c1.4,0.5,2.8,1.2,4,2.2c0.2-2.9-0.1-5.9-0.7-8.9c-0.1-0.5-0.2-1.1-0.3-1.6c-0.1-0.5-0.2-1.1-0.3-1.6    c-0.2-1-0.5-2.1-0.7-3.1c-0.1-0.4-0.2-0.8-0.3-1.2C65.1,32,65,31.5,64.8,31c-0.1-0.5-0.2-1.1-0.3-1.6c-1.5-7.2-1.9-13.9,3.3-19.1    c0.8-0.8,0.8-2,0-2.8c-0.8-0.8-2-0.8-2.8,0c-6.1,6.1-6.1,13.5-4.7,21C60.3,28.9,60.4,29.5,60.6,30z M60,46.3c0.4-0.4,0.4-1,0-1.4    l-7.1-7.1c-0.4-0.4-1-0.4-1.4,0c-0.4,0.4-0.4,1,0,1.4l7.1,7.1C59,46.7,59.6,46.7,60,46.3z"/></g></g><g class="st0"><g class="st1"><defs><rect id="k" width="100" height="100"/></defs><clipPath id="a"><use xlink:href="#k" style="" overflow="visible"/></clipPath><path class="st16" d="M54,70l-0.2,0.1c0,0,0-0.1-0.1-0.1H54z"/><path class="st17" d="M69,43.5c-8.8,0-16.1,5.9-18.3,14c-0.1,0.3-0.2,0.7-0.2,1c-0.1,0.3-0.1,0.7-0.2,1c-0.2,1-0.2,2-0.2,3    c0,2.3,0.4,4.5,1.1,6.5c0.1,0.3,0.3,0.7,0.4,1c0.1,0.3,0.3,0.7,0.5,1c0.8,1.7,1.9,3.2,3.1,4.5c0.3,0.3,0.7,0.7,1,1    c0.4,0.4,0.8,0.7,1.2,1c3.2,2.5,7.3,4,11.7,4c2.1,0,4.1-0.3,6-1c0.3-0.1,0.7-0.2,1-0.4c0.3-0.1,0.7-0.3,1-0.4    c6.5-3,11-9.6,11-17.2C88,52,79.5,43.5,69,43.5z M53.8,70.1c0,0,0-0.1-0.1-0.1c-0.2-0.3-0.3-0.7-0.5-1c-0.8-2-1.3-4.2-1.3-6.5    c0-1,0.1-2,0.3-3c0-0.3,0.1-0.7,0.2-1c0.1-0.3,0.2-0.7,0.3-1c0.3-0.9,0.6-1.8,1-2.6L67,62.5L54,70L53.8,70.1z M68,79.5    c-2.5-0.1-4.9-0.8-7-2c-0.6-0.3-1.1-0.6-1.7-1c-0.5-0.3-0.9-0.6-1.3-1c-1.3-1-2.4-2.3-3.3-3.7L68,64.2V79.5z M68,60.8l-13.2-7.6    c2.9-4.3,7.7-7.3,13.2-7.6V60.8z M70,45.5c5.5,0.3,10.3,3.3,13.2,7.6L70,60.8V45.5z M77,77.5c-0.3,0.2-0.7,0.3-1,0.5    c-0.3,0.2-0.7,0.3-1,0.4c-1.6,0.6-3.2,1-5,1.1V64.2l13.2,7.6C81.6,74.2,79.5,76.1,77,77.5z M71,62.5l13.2-7.6    c1.2,2.3,1.8,4.9,1.8,7.6c0,2.7-0.7,5.3-1.8,7.6L71,62.5z M38.9,25c0.6,0,1,0.5,1,1.1l-0.8,12c0,0.5-0.5,0.9-1,0.9    c-0.6,0-1-0.5-1-1.1l0.8-12C38,25.4,38.4,25,38.9,25z M30.1,25.9l0.8,12c0,0.6-0.4,1.1-1,1.1c-0.5,0-1-0.4-1-0.9l-0.8-12    c0-0.6,0.4-1.1,1-1.1C29.6,25,30,25.4,30.1,25.9z M75,82.6c-1.9,0.6-3.9,0.9-6,0.9c-5.7,0-10.9-2.3-14.7-6c-0.3-0.3-0.7-0.7-1-1    c-0.3-0.3-0.6-0.7-0.8-1H22.8c-0.1,0-0.2,0-0.4,0c-2.3-0.2-4.1-2.1-4.1-4.4V64c0-2.5,2-4.5,4.5-4.5h5.8c0.5,2.3,2.5,4,4.9,4H35    c2.4,0,4.4-1.7,4.9-4h8.3c0-0.3,0.1-0.7,0.2-1c0.1-0.3,0.1-0.7,0.2-1H40v-14H28.5v14h-5.7c-3.6,0-6.5,2.9-6.5,6.5V71    c0,3.4,2.7,6.2,6.1,6.4V89H77v-7.1c-0.3,0.1-0.7,0.3-1,0.4C75.7,82.4,75.3,82.5,75,82.6z M30.5,45.5H38v13c0,0.3-0.1,0.7-0.2,1    c-0.4,1.2-1.5,2-2.8,2h-1.5c-1.3,0-2.4-0.8-2.8-2c-0.1-0.3-0.2-0.7-0.2-1V45.5z M20.5,33.9c-3.7-0.4-6.7-3.3-7.3-6.9    c-0.7-4,1.4-7.8,4.9-9.3c0.4-4.3,4-7.7,8.5-7.7c0.3,0,0.6,0,1,0c1.4-1.9,3.6-3,6-3c2.5,0,4.8,1.2,6.1,3.2c0.6-0.1,1.2-0.2,1.9-0.2    c4.6,0,8.4,3.7,8.5,8.3c2.9,1.8,4.5,5.2,3.9,8.8c-0.6,3.4-3.3,6.1-6.6,6.8c-1.2,0.2-2.3,0.2-3.4,0c-0.5-0.1-0.8-0.5-0.8-1    c0-0.6,0.6-1.1,1.2-1c1.1,0.2,2.3,0.2,3.6-0.3c2.1-0.8,3.8-2.8,4.1-5c0.5-3.1-1.3-6-4-7c0.2-1,0.1-1.9-0.4-3.1    c-0.7-1.9-2.2-3.4-4.2-4c-1.7-0.5-3.4-0.3-4.7,0.4C37.9,10.5,35.9,9,33.5,9c-2.3,0-4.2,1.4-5,3.3c-1.8-0.6-4-0.4-6,1.2    c-1.5,1.2-2.4,3.1-2.4,5c0,0.2,0,0.5,0,0.7c-3,0.7-5.2,3.4-5,6.6c0.1,3.1,2.5,5.7,5.5,6.1c1.1,0.2,2.1,0,3.1-0.3    c0.6-0.2,1.3,0.2,1.3,0.9v0c0,0.4-0.2,0.8-0.6,0.9C23.1,33.9,21.8,34.1,20.5,33.9z M34,20c0.5,0,1,0.5,1,1v17c0,0.5-0.5,1-1,1    s-1-0.5-1-1V21C33,20.5,33.5,20,34,20z"/></g></g><g class="st0"><g class="st1"><defs><rect id="j" width="100" height="100"/></defs><clipPath id="ad"><use xlink:href="#j" style="" overflow="visible"/></clipPath><path class="st18" d="M36.4,23c1.2,0,2.3-0.4,3.2-1.3c1.8-1.8,1.8-4.6,0-6.4c-0.9-0.9-2-1.3-3.2-1.3c-1.2,0-2.3,0.4-3.2,1.3    c-1.8,1.8-1.8,4.6,0,6.4C34.1,22.6,35.3,23,36.4,23z M34.6,16.7c0.5-0.5,1.1-0.7,1.8-0.7c0.7,0,1.3,0.3,1.8,0.7s0.7,1.1,0.7,1.8    c0,0.7-0.3,1.3-0.7,1.8S37.1,21,36.4,21c-0.7,0-1.3-0.3-1.8-0.7C33.7,19.3,33.7,17.7,34.6,16.7z M78,69.3c-1.1-1.1-2.6-1.8-4-2    c0.3-2.1-0.3-4.4-2-6c-0.2-0.2-0.4-0.4-0.7-0.6l2.6-2.6c2.3-2.3,2.3-6.1,0-8.5l-0.7-0.7l0.7-0.7c1.6-1.6,1.6-4.1,0-5.7    c-0.5-0.5-1.1-0.8-1.8-1l1.8-1.8c1.6-1.6,1.6-4.1,0-5.7c-0.5-0.5-1.2-0.9-1.9-1c1.3-1.6,1.2-3.9-0.3-5.3c-1.5-1.5-3.8-1.5-5.3-0.3    c-0.2-0.7-0.5-1.3-1-1.9c-1.6-1.6-4.1-1.6-5.7,0l-4.9,4.9l-5.7-5.7c-1.2-1.2-2.7-1.8-4.2-1.8c-1.5,0-3.1,0.6-4.2,1.8l-2.9,2.9    c-1.2-1-2.7-1.6-4.2-1.6c-1.7,0-3.3,0.6-4.6,1.9c-2.4,2.4-2.5,6.3-0.3,8.8l-1.4,1.4c-2.3,2.3-2.3,6.1,0,8.5l0,0l-2.1,2.1    c-6.2,6.2-6.5,16.7-0.3,22.9c6.3,6.3,16.7,6,22.9-0.3l2.1-2.1l2.1,2.1c0.9,0.9,2,1.4,3.1,1.6c-0.3,2.1,0.3,4.4,2,6    c1.4,1.4,3.2,2.1,4.9,2.1c1.8,0,3.6-0.7,4.9-2.1c0.2-0.2,0.4-0.4,0.6-0.6c0.2,0.2,0.4,0.4,0.6,0.6c1.4,1.4,3.2,2.1,4.9,2.1    c1.8,0,3.6-0.7,4.9-2.1C80.7,76.5,80.7,72,78,69.3z M72.2,43.7c1,0.7,1.1,2.2,0.3,3l-0.7,0.7l-2.8-2.8l0.6-0.6    C70.3,43.3,71.4,43.2,72.2,43.7z M72.2,35.3c1,0.7,1.1,2.2,0.3,3l-4.2,4.2l-0.7,0.7l-2.8-2.8l4.9-4.9    C70.3,34.8,71.4,34.7,72.2,35.3z M67.4,29.2c0.7-0.7,1.8-0.9,2.6-0.3c1,0.7,1.1,2.2,0.3,3L63.3,39l-2.8-2.8L67.4,29.2z M61.1,27.1    c0.7-0.7,1.8-0.9,2.6-0.3c1,0.7,1.1,2.2,0.3,3L59,34.8l-2.8-2.8L61.1,27.1z M33.6,28.1c1,0,2,0.4,2.8,1l0,0    c0.1,0.1,0.1,0.1,0.2,0.2c0.1,0,0.1,0.1,0.2,0.1c0.2,0.2,0.3,0.4,0.5,0.6c0.1,0.2,0.3,0.4,0.4,0.6c0.3,0.6,0.5,1.3,0.5,1.9    c0,1.2-0.5,2.3-1.3,3.2c-0.9,0.8-2,1.3-3.2,1.3c-0.7,0-1.3-0.2-1.9-0.5c-0.2-0.1-0.4-0.2-0.6-0.4c-0.2-0.1-0.4-0.3-0.6-0.5    c0,0,0,0,0,0c-0.1-0.1-0.1-0.1-0.2-0.2c-0.7-0.8-1.1-1.9-1.1-3c0-1.2,0.5-2.3,1.3-3.2C31.3,28.6,32.4,28.1,33.6,28.1z M46.3,70.1    c-5.6,5.6-15.2,5.7-20.6-0.2c-5.1-5.6-4.3-14.5,1.1-19.9l3.2-3.2l2.3-2.3c0.7-0.7,1.8-0.9,2.6-0.3c1,0.7,1.1,2.2,0.3,3l-4.5,4.5    c-0.4,0.4-0.4,1,0,1.4c0.4,0.4,1,0.4,1.4,0l13.6-13.6c0.7-0.7,1.8-0.9,2.6-0.3c1,0.7,1.1,2.2,0.3,3l-9.9,9.9c-0.4,0.4-0.4,1,0,1.4    c0.4,0.4,1,0.4,1.4,0l11.9-11.9c0.7-0.7,1.8-0.9,2.6-0.3c1,0.7,1.1,2.2,0.3,3l-12,12c-0.4,0.4-0.4,1,0,1.4c0.4,0.4,1,0.4,1.4,0    l9.8-9.8c0.7-0.7,1.8-0.9,2.6-0.3c1,0.7,1.1,2.2,0.3,3L45.9,62.1c-0.1,0.1-0.2,0.2-0.2,0.4v0c0,0.1-0.1,0.2-0.1,0.3    c0,0,0,0.1,0,0.1c0,0.1,0,0.2,0,0.2c0,0,0,0.1,0,0.1c0,0.1,0.1,0.2,0.2,0.3c0,0,0,0,0,0c0,0,0,0,0,0c0.1,0.1,0.2,0.1,0.3,0.2    c0,0,0.1,0,0.1,0c0.1,0,0.1,0,0.2,0c0,0,0.1,0,0.1,0c0.1,0,0.2,0,0.3-0.1c0.1,0,0.2-0.1,0.4-0.2l7-7c0.7-0.7,1.8-0.9,2.6-0.3    c1,0.7,1.1,2.2,0.3,3L46.3,70.1z M53.4,70.1L51.3,68l7.4-7.4c1.6-1.6,1.6-4.1,0-5.7c-0.5-0.5-1.1-0.8-1.8-1l1.8-1.8    c1.6-1.6,1.6-4.1,0-5.7c-0.5-0.5-1.2-0.9-1.9-1c1.3-1.6,1.2-3.9-0.3-5.3s-3.8-1.5-5.3-0.3c-0.2-0.7-0.5-1.3-1-1.9    c-1.6-1.6-4.1-1.6-5.7,0l-6.8,6.8c-0.2-0.7-0.5-1.3-1-1.8c-1.6-1.6-4.1-1.6-5.7,0l-2.4,2.4l0,0c-0.8-0.8-1.2-1.8-1.2-2.8    s0.4-2.1,1.2-2.8l1.5-1.5c1,0.6,2.2,1,3.4,1c1.7,0,3.3-0.6,4.6-1.9c2.2-2.2,2.5-5.5,0.9-8l3-3c0.8-0.8,1.8-1.2,2.8-1.2    c1.1,0,2.1,0.4,2.8,1.2l18.4,18.4l1.4,1.4l0,0l2.8,2.8l0,0l1.4,1.4l0,0l0.7,0.7c0.8,0.8,1.2,1.8,1.2,2.8c0,1.1-0.4,2.1-1.2,2.8    l-3,3c-0.8-0.3-1.6-0.4-2.5-0.4c-1.8,0-3.6,0.7-4.9,2.1c-1.7,1.7-2.3,4-1.9,6.2c-1.1,0.3-2.2,0.9-3.1,1.8c-0.6,0.6-1,1.2-1.4,1.9    C54.8,71.1,54,70.7,53.4,70.1z M76.5,77.8c-0.9,0.9-2.2,1.5-3.5,1.5c-1.3,0-2.6-0.5-3.5-1.5c-0.1-0.1-0.3-0.3-0.4-0.5l-1.6-2    l-1.6,2c-0.1,0.2-0.3,0.3-0.4,0.4c-0.9,0.9-2.2,1.5-3.5,1.5c-1.3,0-2.6-0.5-3.5-1.5c-0.9-0.9-1.5-2.2-1.5-3.5    c0-0.6,0.1-1.2,0.3-1.8c0-0.1,0.1-0.2,0.1-0.3c0.1-0.2,0.2-0.3,0.3-0.5c0.1-0.1,0.1-0.2,0.2-0.2c0.2-0.2,0.3-0.5,0.6-0.7    c0,0,0,0,0,0c0.3-0.3,0.6-0.5,0.9-0.7c0.4-0.2,0.8-0.4,1.3-0.6l1.3-0.4l0.4-0.1l-0.3-1.8c0,0,0,0,0-0.1c-0.3-1.6,0.2-3.2,1.4-4.4    c0.9-0.9,2.2-1.5,3.5-1.5c0.3,0,0.5,0,0.8,0.1l0,0c0.1,0,0.3,0.1,0.4,0.1c0.1,0,0.3,0.1,0.4,0.1c0.1,0.1,0.3,0.1,0.4,0.2    c0.2,0.1,0.3,0.2,0.5,0.3c0.1,0,0.2,0.1,0.2,0.1c0.2,0.2,0.5,0.4,0.7,0.6c1.1,1.1,1.6,2.7,1.4,4.3l-0.3,2l2,0.3    c1.1,0.1,2.1,0.6,2.9,1.4c0.9,0.9,1.5,2.2,1.5,3.5C78,75.6,77.5,76.9,76.5,77.8z"/></g></g><g class="st0"><g class="st1"><defs><rect id="i" width="100" height="100"/></defs><clipPath id="ac"><use xlink:href="#i" style="" overflow="visible"/></clipPath><path class="st19" d="M78,53.4L78,53.4c-0.1-0.1-0.2-0.2-0.2-0.2c-1.3-1.3-2.4-1.6-3.4-1.8c-0.9-0.2-1.5-0.3-2.5-1.3    c-0.9-0.9-1.2-1.5-1.4-2.3c-0.2-1-0.4-2.2-1.7-3.5L68,43.4c1.3-1.9,1.1-4.6-0.6-6.3l0,0l1.4-1.4c0.4-0.4,0.4-1,0-1.4    c-0.2-0.2-0.5-0.3-0.7-0.3s-0.5,0.1-0.7,0.3L66,35.7l-2.1-2.1l1.4-1.4c0.4-0.4,0.4-1,0-1.4c-0.2-0.2-0.5-0.3-0.7-0.3    s-0.5,0.1-0.7,0.3l-1.4,1.4l0,0c-0.7-0.7-1.5-1.1-2.3-1.3V28c0-0.6-0.4-1-1-1c-0.6,0-1,0.4-1,1v2.8c-0.7,0.1-1.4,0.4-2,0.8    L54.7,30c-0.2-0.2-0.5-0.3-0.7-0.3s-0.5,0.1-0.7,0.3c-0.4,0.4-0.4,1,0,1.4l1.5,1.5c-0.4,0.5-0.6,1.1-0.7,1.8h-2.6    c-0.6,0-1,0.4-1,1s0.4,1,1,1H54c0.2,0.9,0.6,1.8,1.4,2.5L54,40.6c-0.4,0.4-0.4,1,0,1.4c0.2,0.2,0.5,0.3,0.7,0.3s0.5-0.1,0.7-0.3    l1.4-1.4l2.1,2.1l-1.4,1.4c-0.4,0.4-0.4,1,0,1.4c0.2,0.2,0.5,0.3,0.7,0.3s0.5-0.1,0.7-0.3l1.4-1.4c0.8,0.8,1.7,1.2,2.7,1.4v2.8    c0,0.6,0.4,1,1,1c0.6,0,1-0.4,1-1v-2.9c0.5-0.1,1.1-0.3,1.5-0.7l0.8,0.8c0.9,0.9,1,1.7,1.2,2.6c0.2,1,0.6,2,1.9,3.3    c1.3,1.3,2.4,1.6,3.4,1.8c0.9,0.2,1.5,0.3,2.5,1.3c0.1,0.1,0.2,0.2,0.2,0.2l0,0l0.7,0.7c0.4,0.4,1,0.4,1.4,0c0.4-0.4,0.4-1,0-1.4    L78,53.4z M63.9,43.6c-0.8,0-1.6-0.3-2.1-0.9l-4.9-4.9c-0.6-0.6-0.9-1.3-0.9-2.1c0-0.8,0.3-1.6,0.9-2.1s1.3-0.9,2.1-0.9    c0.8,0,1.6,0.3,2.1,0.9l4.9,4.9c0.6,0.6,0.9,1.3,0.9,2.1c0,0.8-0.3,1.6-0.9,2.1C65.4,43.3,64.7,43.6,63.9,43.6z M71.6,62.1H69    c-0.2-0.9-0.6-1.8-1.4-2.5l1.4-1.4c0.4-0.4,0.4-1,0-1.4c-0.2-0.2-0.5-0.3-0.7-0.3s-0.5,0.1-0.7,0.3l-1.4,1.4L64.1,56l1.4-1.4    c0.4-0.4,0.4-1,0-1.4c-0.2-0.2-0.5-0.3-0.7-0.3s-0.5,0.1-0.7,0.3l-1.4,1.4c-0.8-0.8-1.7-1.2-2.7-1.4v-2.8c0-0.6-0.4-1-1-1    c-0.6,0-1,0.4-1,1v2.9c-0.5,0.1-1.1,0.3-1.6,0.7l-0.8-0.8c-0.9-0.9-1-1.7-1.2-2.6c-0.2-1-0.6-2-1.9-3.3c-1.3-1.3-2.4-1.6-3.4-1.8    c-0.9-0.2-1.5-0.3-2.5-1.3c-0.1-0.1-0.2-0.2-0.2-0.2l0,0l-0.7-0.7c-0.4-0.4-1-0.4-1.4,0c-0.4,0.4-0.4,1,0,1.4l0.7,0.7l0,0    c0.1,0.1,0.1,0.2,0.2,0.2c1.3,1.3,2.4,1.6,3.4,1.8c0.9,0.2,1.5,0.3,2.5,1.3c0.9,0.9,1.2,1.5,1.4,2.3c0.2,1,0.4,2.2,1.7,3.5    l0.8,0.8c-0.4,0.5-0.6,1.1-0.7,1.8h-3c-0.6,0-1,0.4-1,1c0,0.6,0.4,1,1,1h3c0.2,0.9,0.6,1.8,1.4,2.5l0,0l-1.4,1.4    c-0.4,0.4-0.4,1,0,1.4c0.2,0.2,0.5,0.3,0.7,0.3s0.5-0.1,0.7-0.3l1.4-1.4l2.1,2.1l-1.4,1.4c-0.4,0.4-0.4,1,0,1.4    c0.2,0.2,0.5,0.3,0.7,0.3s0.5-0.1,0.7-0.3l1.4-1.4l0,0c0.7,0.7,1.5,1.1,2.3,1.3v2.9c0,0.6,0.4,1,1,1c0.6,0,1-0.4,1-1V68    c0.7-0.1,1.4-0.4,2-0.8l1.5,1.5c0.2,0.2,0.5,0.3,0.7,0.3s0.5-0.1,0.7-0.3c0.4-0.4,0.4-1,0-1.4l-1.5-1.5c0.4-0.5,0.6-1.1,0.7-1.8    h2.6c0.6,0,1-0.4,1-1C72.6,62.5,72.1,62.1,71.6,62.1z M57,60.3c-0.6-0.6-0.9-1.3-0.9-2.1c0-0.8,0.3-1.6,0.9-2.1s1.3-0.9,2.1-0.9    s1.6,0.3,2.1,0.9l4.9,4.9c0.6,0.6,0.9,1.3,0.9,2.1c0,0.8-0.3,1.6-0.9,2.1c-0.6,0.6-1.3,0.9-2.1,0.9c-0.8,0-1.6-0.3-2.1-0.9    L57,60.3z M84.6,27.4C78.4,21.1,70.2,18,62,18s-16.4,3.1-22.6,9.4c-12.5,12.5-12.5,32.8,0,45.3C45.6,78.9,53.8,82,62,82    s16.4-3.1,22.6-9.4C97.1,60.1,97.1,39.9,84.6,27.4z M80.4,68.4C75.5,73.3,68.9,76,62,76c-6,0-11.6-2-16.2-5.7l5.3-5.3l-4.1-4.1    l-5.3,5.3c-8.1-10.2-7.5-25.2,1.9-34.6C48.5,26.7,55.1,24,62,24c6,0,11.6,2,16.2,5.7l-5.3,5.3l4.1,4.1l5.3-5.3    C90.5,44,89.8,58.9,80.4,68.4z M26,48.2H10V28.1c0-8.6,7-15.6,15.5-15.6c4.1,0,8,1.6,11,4.6c1.4,1.4,2.4,3,3.2,4.7    c0.8-0.6,1.6-1.2,2.5-1.8c-0.9-1.8-2.1-3.5-3.5-5c-3.5-3.5-8.1-5.5-13.1-5.5C15.3,9.5,7,17.9,7,28.1v42.3C7,80.6,15.3,89,25.5,89    c6.9,0,12.8-3.8,16-9.4c-1.8-1.2-3.4-2.6-5-4.2C29.1,68,25.6,58,26,48.2z M19.9,79.2c-0.5,0.7-1.4,0.9-2.1,0.4    C14.9,77.4,13,73.9,13,70V56.5c0-0.8,0.7-1.5,1.5-1.5s1.5,0.7,1.5,1.5V70c0,2.9,1.4,5.6,3.6,7.2C20.2,77.7,20.3,78.6,19.9,79.2z"/></g></g><g class="st0"><g class="st1"><defs><rect id="h" width="100" height="100"/></defs><clipPath id="ab"><use xlink:href="#h" style="" overflow="visible"/></clipPath><path class="st20" d="M75.9,55c-1.7,1-2.9,2.7-2.9,4.7V60h-4v-0.4c0-2-1.2-3.7-2.9-4.7C65.4,54.5,65,54,65,53.5    c0-1.4,2.7-2.5,6-2.5s6,1.1,6,2.5C77,54,76.6,54.5,75.9,55z M78,64c0,1.1-0.9,2-2,2h-8c-3.4,0-5.2-1.3-6.7-2.4    C60,62.7,59.1,62,57,62H44.7l0.3,4h11c1.1,0,2,0.9,2,2v5c0,1.1-0.9,2-2,2H26c-1.1,0-2-0.9-2-2v-5c0-1.1,0.9-2,2-2h4l0.5-4H26    c-1.1,0-2-0.9-2-2s0.9-2,2-2h4.9l0.3-2.3c0.1-1,1-1.7,2-1.7h9.1c1,0,1.9,0.8,2,1.8l0.2,2.2H57c3.4,0,5.2,1.3,6.7,2.4    C65,61.3,65.9,62,68,62h8C77.1,62,78,62.9,78,64z M42.2,56h-9l-0.2,2L32,66.2L31.8,68H26l0,5l30,0l0-5l-12.8,0L42.2,56z M37.5,58    c-1.4,0-2.5,1.1-2.5,2.5c0,1.4,1.1,2.5,2.5,2.5s2.5-1.1,2.5-2.5C40,59.1,38.9,58,37.5,58z M71,27v13c0,2.2-1.8,4-4,4h-8l-7.7,6.8    c-0.4,0.4-0.9,0.5-1.3,0.5c-1,0-2-0.8-2-2V44H32c-2.2,0-4-1.8-4-4V27c0-2.2,1.8-4,4-4h35C69.2,23,71,24.8,71,27z M69,27    c0-1.1-0.9-2-2-2H32c-1.1,0-2,0.9-2,2v13c0,1.1,0.9,2,2,2h16h2v2v5.3l7.7-6.8l0.6-0.5H59h8c1.1,0,2-0.9,2-2V27z M53,30.5L53,30.5    c0-0.8-0.7-1.5-1.5-1.5h-11c-0.8,0-1.5,0.7-1.5,1.5v0c0,0.8,0.7,1.5,1.5,1.5h11C52.3,32,53,31.3,53,30.5z M66,36.5L66,36.5    c0-0.8-0.7-1.5-1.5-1.5h-9c-0.8,0-1.5,0.7-1.5,1.5l0,0c0,0.8,0.7,1.5,1.5,1.5h9C65.3,38,66,37.3,66,36.5z M45,36.5L45,36.5    c0-0.8-0.7-1.5-1.5-1.5h-9c-0.8,0-1.5,0.7-1.5,1.5l0,0c0,0.8,0.7,1.5,1.5,1.5h9C44.3,38,45,37.3,45,36.5z M58.5,29    c-0.8,0-1.5,0.7-1.5,1.5c0,0.8,0.7,1.5,1.5,1.5s1.5-0.7,1.5-1.5C60,29.7,59.3,29,58.5,29z M34.5,29c-0.8,0-1.5,0.7-1.5,1.5    c0,0.8,0.7,1.5,1.5,1.5s1.5-0.7,1.5-1.5C36,29.7,35.3,29,34.5,29z M49.5,35c-0.8,0-1.5,0.7-1.5,1.5s0.7,1.5,1.5,1.5    s1.5-0.7,1.5-1.5S50.3,35,49.5,35z M64.5,29c-0.8,0-1.5,0.7-1.5,1.5c0,0.8,0.7,1.5,1.5,1.5c0.8,0,1.5-0.7,1.5-1.5    C66,29.7,65.3,29,64.5,29z"/></g></g><g class="st0"><g class="st1"><defs><rect id="g" width="100" height="100"/></defs><clipPath id="aa"><use xlink:href="#g" style="" overflow="visible"/></clipPath><g class="st21"><path d="M52.4,32.3l-3.1,4.3c-1.8-0.5-3.5-0.7-5.3-0.7c-4.9,0-9.8,1.8-13.7,5.3c-0.4,0.4-0.4,1,0,1.4l8.6,8.6L36,55l9,9l3.9-2.8     l8.7,8.7c0.4,0.4,1.1,0.4,1.4,0c4.9-5.4,6.3-12.7,4.5-19.3l4.2-3C76.7,40,77.3,33.8,78,22v0C66.2,22.7,60,23.3,52.4,32.3z      M32.4,41.9c3.3-2.6,7.3-4.1,11.5-4.1c1.4,0,2.8,0.2,4.1,0.5l-8,11.2L32.4,41.9z M58.3,67.8L50.5,60l11.3-8.1     C63.1,57.3,62,63.2,58.3,67.8z M66.5,46.1L45.2,61.4l-6.6-6.6l15.3-21.3c6.6-7.7,11.5-8.7,21.9-9.4     C75.2,34.5,74.2,39.5,66.5,46.1z"/><path d="M65.6,40c1.4,0,2.8-0.5,3.9-1.6c2.1-2.1,2.1-5.6,0-7.7c-1.1-1.1-2.5-1.6-3.9-1.6c-1.4,0-2.8,0.5-3.9,1.6     c-2.1,2.1-2.1,5.6,0,7.7C62.8,39.5,64.2,40,65.6,40z M63.2,32.1c0.7-0.7,1.5-1,2.4-1c0.9,0,1.8,0.4,2.4,1c1.3,1.3,1.3,3.5,0,4.9     c-0.7,0.7-1.5,1-2.4,1c-0.9,0-1.8-0.4-2.4-1C61.8,35.6,61.8,33.5,63.2,32.1z"/><path d="M39.5,64L25.1,74.9L36,60.4c0.4-0.4,0.3-1.1-0.1-1.4c-0.4-0.4-1.1-0.3-1.4,0.1L17.2,81.4c-0.3,0.4-0.3,1,0.1,1.3     c0.2,0.2,0.5,0.3,0.7,0.3c0.2,0,0.4-0.1,0.6-0.2l22.1-17.2c0.4-0.3,0.5-1,0.1-1.4C40.6,63.7,39.9,63.6,39.5,64z"/></g></g></g><g class="st0"><g class="st1"><defs><rect id="f" width="100" height="100"/></defs><clipPath id="z"><use xlink:href="#f" style="" overflow="visible"/></clipPath><path class="st22" d="M71.9,24C72,24,72,24,71.9,24L72,55.9c0,0,0,0.1-0.1,0.1H28.1c0,0-0.1,0-0.1-0.1V24.1c0,0,0-0.1,0.1-0.1    H71.9 M71.9,22H28.1c-1.2,0-2.1,0.9-2.1,2.1v31.8c0,1.2,0.9,2.1,2.1,2.1h43.8c1.2,0,2.1-0.9,2.1-2.1V24.1C74,22.9,73.1,22,71.9,22    L71.9,22z M72,64v10H28V64H72 M72.1,62H27.9c-1,0-1.9,0.8-1.9,1.9v10.3c0,1,0.8,1.9,1.9,1.9h44.3c1,0,1.9-0.8,1.9-1.9V63.9    C74,62.8,73.2,62,72.1,62L72.1,62z M70,26H30v28h40V26z M45,68H33c-0.6,0-1,0.4-1,1s0.4,1,1,1h12c0.6,0,1-0.4,1-1S45.6,68,45,68    L45,68z M67,67c-1.1,0-2,0.9-2,2s0.9,2,2,2s2-0.9,2-2S68.1,67,67,67L67,67z"/></g></g><g><g><defs><rect id="e" width="100" height="100"/></defs><clipPath id="y"><use xlink:href="#e" style="" overflow="visible"/></clipPath><path class="st23" d="M41.7,38.9l-5.5-7.5c-0.3-0.4-0.2-1.1,0.2-1.4l0,0c0.4-0.3,1.1-0.2,1.4,0.2l5.5,7.5c0.3,0.5,0.2,1.1-0.3,1.4    c0,0,0,0,0,0C42.6,39.4,42,39.3,41.7,38.9z M63.6,30L63.6,30c-0.5-0.3-1.1-0.2-1.4,0.2l-5.5,7.5c-0.3,0.5-0.2,1.1,0.3,1.4    c0,0,0,0,0,0c0.4,0.3,1,0.2,1.4-0.2l5.5-7.5C64.1,30.9,64,30.3,63.6,30z M71.3,54.5L63.4,52c-0.5-0.2-1.1,0.1-1.3,0.7c0,0,0,0,0,0    c-0.1,0.5,0.2,1,0.7,1.2l7.9,2.6c0.5,0.2,1.1-0.1,1.2-0.6l0,0C72.1,55.3,71.8,54.7,71.3,54.5z M50,71c0.5,0,1-0.4,1-1v-7.7    c0-0.6-0.4-1-1-1s-1,0.4-1,1V70C49,70.6,49.4,71,50,71L50,71z M37.9,52.7c-0.1-0.6-0.7-0.9-1.3-0.7l-7.9,2.6    c-0.5,0.2-0.8,0.7-0.6,1.2l0,0c0.2,0.5,0.7,0.8,1.2,0.6l7.9-2.6C37.7,53.7,38,53.2,37.9,52.7C37.9,52.7,37.9,52.7,37.9,52.7z     M26,19.6V14c0-1.1,0.9-2,2-2H38c1.1,0,2,0.9,2,2v5.6c0,1.1-0.9,2-2,2H28C26.9,21.7,26,20.8,26,19.6z M28,19.6    C28,19.7,28,19.7,28,19.6l10,0c0,0,0,0,0,0V14c0,0,0,0,0,0H28c0,0,0,0,0,0V19.6z M41,24.7c0-0.6-0.4-1-1-1H26c-0.6,0-1,0.4-1,1    c0,0.6,0.4,1,1,1h14C40.6,25.7,41,25.2,41,24.7z M45,75.3H55c1.1,0,2,0.9,2,2V83c0,1.1-0.9,2-2,2H45c-1.1,0-2-0.9-2-2v-5.6    C43,76.2,43.9,75.3,45,75.3z M55,77.3H45c0,0,0,0,0,0V83c0,0,0,0,0,0H55c0,0,0,0,0,0L55,77.3C55,77.3,55,77.3,55,77.3z M57,87H43    c-0.6,0-1,0.4-1,1c0,0.6,0.4,1,1,1h14c0.6,0,1-0.4,1-1C58,87.4,57.6,87,57,87z M76,59.6V54c0-1.1,0.9-2,2-2H88c1.1,0,2,0.9,2,2    v5.6c0,1.1-0.9,2-2,2H78C76.9,61.7,76,60.8,76,59.6z M78,59.6C78,59.7,78,59.7,78,59.6l10,0c0,0,0,0,0,0V54c0,0,0,0,0,0H78    c0,0,0,0,0,0V59.6z M90,63.7H76c-0.6,0-1,0.4-1,1c0,0.6,0.4,1,1,1h14c0.6,0,1-0.4,1-1C91,64.1,90.6,63.7,90,63.7z M10,61v-5.6    c0-1.1,0.9-2,2-2H22c1.1,0,2,0.9,2,2V61c0,1.1-0.9,2-2,2H12C10.9,63,10,62.1,10,61z M12,61C12,61,12,61,12,61l10,0c0,0,0,0,0,0    v-5.6c0,0,0,0,0,0H12c0,0,0,0,0,0V61z M24,65H10c-0.6,0-1,0.4-1,1c0,0.6,0.4,1,1,1h14c0.6,0,1-0.4,1-1C25,65.4,24.6,65,24,65z     M60,19.6V14c0-1.1,0.9-2,2-2H72c1.1,0,2,0.9,2,2v5.6c0,1.1-0.9,2-2,2H62C60.9,21.7,60,20.8,60,19.6z M62,19.6    C62,19.7,62,19.7,62,19.6l10,0c0,0,0,0,0,0V14c0,0,0,0,0,0H62c0,0,0,0,0,0V19.6z M74,23.7H60c-0.6,0-1,0.4-1,1c0,0.6,0.4,1,1,1h14    c0.6,0,1-0.4,1-1C75,24.1,74.6,23.7,74,23.7z M43,44.6c0-1.1,0.9-2,2-2H55c1.1,0,2,0.9,2,2v5.6c0,1.1-0.9,2-2,2H45    c-1.1,0-2-0.9-2-2V44.6z M45,50.2C45,50.2,45,50.2,45,50.2l10,0c0,0,0,0,0,0v-5.6c0,0,0,0,0,0H45c0,0,0,0,0,0V50.2z M57,54.2H43    c-0.6,0-1,0.4-1,1s0.4,1,1,1h14c0.6,0,1-0.4,1-1S57.6,54.2,57,54.2z"/></g></g><g class="st0"><g class="st1"><defs><rect id="d" width="100" height="100"/></defs><clipPath id="x"><use xlink:href="#d" style="" overflow="visible"/></clipPath><g class="st24"><path d="M46.2,63.5L36.1,74.5L44.6,50H33.6l12.8-32h14l-10,22.8l-1.2,2.8h3.1h12.2l-5.1,5.5c0.6,0.3,1.1,0.7,1.6,1.2l8-8.7H52.2     L63.4,16H45L30.6,52h11.2L31,83l16.5-18C47.5,64.9,46.5,63.9,46.2,63.5z"/><path d="M71.8,69.8l-11-9.6c1-2.5,0.4-5.4-1.6-7.4c-1.4-1.4-3.1-2-4.9-2c-0.8,0-1.7,0.2-2.4,0.4l2.8,2.8c0,0,0.1,0.1,0.1,0.1l0,0     c0.1,0.2,0.3,0.3,0.4,0.5c0,0,0,0,0,0c0.1,0.2,0.2,0.3,0.2,0.5c0,0,0,0,0,0c0.1,0.2,0.1,0.4,0.1,0.6c0,0,0,0,0,0     c0,0.2,0,0.4,0,0.6c-0.1,0.7-0.3,1.3-0.8,1.8c-0.4,0.4-1,0.7-1.6,0.8l0,0c-0.2,0-0.3,0-0.5,0c-0.2,0-0.3,0-0.5,0     c-0.1,0-0.2,0-0.3-0.1c-0.1,0-0.1,0-0.2-0.1c-0.1,0-0.2-0.1-0.3-0.1c0,0-0.1,0-0.1,0c-0.1-0.1-0.2-0.1-0.4-0.2     c-0.1-0.1-0.2-0.2-0.3-0.3l-2.8-2.8c-0.7,1.9-0.5,4.1,0.5,5.9l0,0c0,0,0,0,0,0c0.1,0.2,0.3,0.5,0.5,0.7c0.2,0.2,0.4,0.5,0.6,0.7     c1.4,1.4,3.1,2,4.9,2c0.9,0,1.7-0.2,2.5-0.5l9.6,11c1.3,1.3,3.5,1.1,5-0.4S73.1,71.1,71.8,69.8z"/></g></g></g></svg>