<svg xmlns="http://www.w3.org/2000/svg" xmlns:xlink="http://www.w3.org/1999/xlink" version="1.1" x="0px" y="0px" viewBox="0 0 1024 1280" style="enable-background:new 0 0 1024 1024;" xml:space="preserve"><g><g><g><path d="M864.5,512.5c0,17.6-1.2,35.2-3.5,52.7c0.5-3.5,1-7.1,1.4-10.6c-4.7,34.3-13.8,67.9-27.3,99.8     c1.3-3.2,2.7-6.4,4-9.6c-13.2,31.2-30.4,60.5-51.1,87.3c2.1-2.7,4.2-5.4,6.3-8.1c-20.4,26.2-44,49.8-70.2,70.2     c2.7-2.1,5.4-4.2,8.1-6.3c-26.8,20.7-56.1,37.9-87.3,51.1c3.2-1.3,6.4-2.7,9.6-4c-31.9,13.4-65.5,22.6-99.8,27.3     c3.5-0.5,7.1-1,10.6-1.4c-35,4.6-70.5,4.6-105.5,0c3.5,0.5,7.1,1,10.6,1.4c-34.3-4.7-67.9-13.8-99.8-27.3c3.2,1.3,6.4,2.7,9.6,4     c-31.2-13.2-60.5-30.4-87.3-51.1c2.7,2.1,5.4,4.2,8.1,6.3c-26.2-20.4-49.8-44-70.2-70.2c2.1,2.7,4.2,5.4,6.3,8.1     c-20.7-26.8-37.9-56.1-51.1-87.3c1.3,3.2,2.7,6.4,4,9.6c-13.4-31.9-22.6-65.5-27.3-99.8c0.5,3.5,1,7.1,1.4,10.6     c-4.6-35-4.6-70.5,0-105.5c-0.5,3.5-1,7.1-1.4,10.6c4.7-34.3,13.8-67.9,27.3-99.8c-1.3,3.2-2.7,6.4-4,9.6     c13.2-31.2,30.4-60.5,51.1-87.3c-2.1,2.7-4.2,5.4-6.3,8.1c20.4-26.2,44-49.8,70.2-70.2c-2.7,2.1-5.4,4.2-8.1,6.3     c26.8-20.7,56.1-37.9,87.3-51.1c-3.2,1.3-6.4,2.7-9.6,4c31.9-13.4,65.5-22.6,99.8-27.3c-3.5,0.5-7.1,1-10.6,1.4     c35-4.6,70.5-4.6,105.5,0c-3.5-0.5-7.1-1-10.6-1.4c34.3,4.7,67.9,13.8,99.8,27.3c-3.2-1.3-6.4-2.7-9.6-4     c31.2,13.2,60.5,30.4,87.3,51.1c-2.7-2.1-5.4-4.2-8.1-6.3c26.2,20.4,49.8,44,70.2,70.2c-2.1-2.7-4.2-5.4-6.3-8.1     c20.7,26.8,37.9,56.1,51.1,87.3c-1.3-3.2-2.7-6.4-4-9.6c13.4,31.9,22.6,65.5,27.3,99.8c-0.5-3.5-1-7.1-1.4-10.6     C863.3,477.3,864.5,494.9,864.5,512.5c0,20.9,18.4,41,40,40c21.6-1,40-17.6,40-40c-0.2-87.7-27-175.9-78-247.4     c-13.4-18.8-27.9-36.8-43.9-53.4c-15.8-16.3-33-30.8-51-44.6c-34.3-26.3-72.6-46.3-113.2-61.2c-83.6-30.7-178.2-33.4-263.8-9.1     c-82.4,23.4-158.6,72.1-213.1,138.3c-14.7,17.8-28.4,36.5-40.3,56.3c-11.8,19.7-21.4,40.3-30.1,61.5     c-16.8,41-26.1,84.6-29.5,128.8c-6.8,88,15.1,178.6,60.9,254.1c44.2,72.9,110.7,133.5,188.6,168.7c21.2,9.6,42.9,18,65.4,24.3     c22.9,6.4,46.4,10.3,70,13.1c44.9,5.2,90.6,2.4,134.9-6.6c84.3-17.1,163.6-61.7,222.9-123.8C884,749,925.6,668.2,938.6,582.7     c3.5-23.3,5.9-46.6,5.9-70.2c0-20.9-18.4-41-40-40C882.8,473.5,864.5,490.1,864.5,512.5z"/></g></g><g><g><path d="M551.5,704c0-25.6,0-51.1,0-76.7c0-40.7,0-81.5,0-122.2c0-9.4,0-18.7,0-28.1c0-20.9-18.4-41-40-40     c-21.7,1-40,17.6-40,40c0,25.6,0,51.1,0,76.7c0,40.7,0,81.5,0,122.2c0,9.4,0,18.7,0,28.1c0,20.9,18.4,41,40,40     C533.2,743,551.5,726.4,551.5,704L551.5,704z"/></g></g><g><g><path d="M551.5,346c0-9,0-18,0-27c0-20.9-18.4-41-40-40c-21.7,1-40,17.6-40,40c0,9,0,18,0,27     c0,20.9,18.4,41,40,40C533.2,385,551.5,368.4,551.5,346L551.5,346z"/></g></g></g></svg>