<svg xmlns="http://www.w3.org/2000/svg" xmlns:xlink="http://www.w3.org/1999/xlink" version="1.1" x="0px" y="0px" viewBox="0 0 128 160" style="enable-background:new 0 0 128 128;" xml:space="preserve"><g><g><path d="M104.5,127h-8.2c-1.4,0-2.5-1.1-2.5-2.5v-2.7c-1.2-0.4-2.3-0.8-3.4-1.4l-1.9,1.9c-1,1-2.6,1-3.5,0l-5.8-5.8    c-0.5-0.5-0.7-1.1-0.7-1.8s0.3-1.3,0.7-1.8l1.9-1.9c-0.6-1.1-1-2.2-1.4-3.4H77c-1.4,0-2.5-1.1-2.5-2.5V97c0-1.4,1.1-2.5,2.5-2.5    h2.7c0.4-1.2,0.8-2.3,1.4-3.4l-1.9-1.9c-1-1-1-2.6,0-3.5l5.8-5.8c1-1,2.6-1,3.5,0l1.9,1.9c1.1-0.6,2.2-1,3.4-1.4v-2.7    c0-1.4,1.1-2.5,2.5-2.5h8.2c1.4,0,2.5,1.1,2.5,2.5v2.7c1.2,0.4,2.3,0.8,3.4,1.4l1.9-1.9c0.5-0.5,1.1-0.7,1.8-0.7    c0.7,0,1.3,0.3,1.8,0.7l5.8,5.8c1,1,1,2.6,0,3.5l-1.9,1.9c0.6,1.1,1,2.2,1.4,3.4h2.7c1.4,0,2.5,1.1,2.5,2.5v8.2    c0,1.4-1.1,2.5-2.5,2.5h-2.7c-0.4,1.2-0.8,2.3-1.4,3.4l1.9,1.9c1,1,1,2.6,0,3.5l-5.8,5.8c-0.5,0.5-1.1,0.7-1.8,0.7l0,0    c-0.7,0-1.3-0.3-1.8-0.7l-1.9-1.9c-1.1,0.6-2.2,1-3.4,1.4v2.7C107,125.9,105.9,127,104.5,127z M98.8,122h3.2v-2.1    c0-1.2,0.8-2.2,2-2.4c1.9-0.4,3.8-1.2,5.5-2.3c1-0.6,2.3-0.5,3.1,0.3l1.5,1.5l2.3-2.3l-1.5-1.5c-0.8-0.8-1-2.1-0.3-3.1    c1.1-1.7,1.8-3.5,2.2-5.5c0.2-1.2,1.3-2,2.4-2h2.1v-3.2h-2.1c-1.2,0-2.2-0.8-2.4-2c-0.4-1.9-1.2-3.8-2.3-5.5    c-0.6-1-0.5-2.3,0.3-3.1l1.5-1.5l-2.3-2.3l-1.5,1.5c-0.8,0.8-2.1,1-3.1,0.3c-1.7-1.1-3.5-1.8-5.5-2.2c-1.2-0.2-2-1.3-2-2.4v-2.1    h-3.2v2.1c0,1.2-0.8,2.2-2,2.4c-1.9,0.4-3.8,1.2-5.5,2.3c-1,0.6-2.3,0.5-3.1-0.3l-1.5-1.5l-2.3,2.3l1.5,1.5c0.8,0.8,1,2.1,0.3,3.1    c-1.1,1.7-1.8,3.5-2.2,5.5c-0.2,1.2-1.3,2-2.4,2h-2.1v3.2h2.1c1.2,0,2.2,0.8,2.4,2c0.4,1.9,1.2,3.8,2.3,5.5c0.6,1,0.5,2.3-0.3,3.1    l-1.5,1.5l2.3,2.3l1.5-1.5c0.8-0.8,2.1-1,3.1-0.3c1.7,1.1,3.5,1.8,5.5,2.2c1.2,0.2,2,1.3,2,2.4V122z"/></g><path d="M100.4,114.7c-7.5,0-13.6-6.1-13.6-13.6s6.1-13.6,13.6-13.6s13.6,6.1,13.6,13.6S107.9,114.7,100.4,114.7z M100.4,92.5   c-4.7,0-8.6,3.9-8.6,8.6s3.9,8.6,8.6,8.6s8.6-3.9,8.6-8.6S105.1,92.5,100.4,92.5z"/><g><path d="M104.9,49.5h-7.7c-1.4,0-2.5-1.1-2.5-2.5v-2.3c-1-0.3-2-0.7-2.9-1.2l-1.7,1.7c-1,1-2.6,1-3.5,0l-5.4-5.4c-1-1-1-2.6,0-3.5    l1.7-1.7c-0.5-0.9-0.9-1.9-1.2-2.9h-2.4c-1.4,0-2.5-1.1-2.5-2.5v-7.7c0-1.4,1.1-2.5,2.5-2.5h2.3c0.3-1,0.7-2,1.2-2.9l-1.7-1.7    c-1-1-1-2.6,0-3.5l5.4-5.4c1-1,2.6-1,3.5,0l1.7,1.7c0.9-0.5,1.9-0.9,2.9-1.2V3.5c0-1.4,1.1-2.5,2.5-2.5h7.7c1.4,0,2.5,1.1,2.5,2.5    v2.4c1,0.3,2,0.7,2.9,1.2l1.7-1.7c0.5-0.5,1.1-0.7,1.8-0.7c0.7,0,1.3,0.3,1.8,0.7l5.4,5.4c1,1,1,2.6,0,3.5l-1.7,1.7    c0.5,0.9,0.9,1.9,1.2,2.9h2.4c1.4,0,2.5,1.1,2.5,2.5v7.7c0,1.4-1.1,2.5-2.5,2.5h-2.3c-0.3,1-0.7,2-1.2,2.9l1.7,1.7    c1,1,1,2.6,0,3.5l-5.4,5.4c-1,1-2.6,1-3.5,0l-1.7-1.7c-0.9,0.5-1.9,0.9-2.9,1.2V47C107.4,48.4,106.3,49.5,104.9,49.5z M99.8,44.5    h2.7v-1.8c0-1.2,0.8-2.2,2-2.4c1.8-0.4,3.5-1.1,5-2.1c1-0.6,2.3-0.5,3.1,0.3l1.2,1.2l1.9-1.9l-1.2-1.2c-0.8-0.8-1-2.1-0.3-3.1    c1-1.5,1.7-3.2,2.1-5c0.2-1.2,1.3-2,2.4-2h1.8v-2.7h-1.8c-1.2,0-2.2-0.8-2.4-2c-0.4-1.8-1.1-3.5-2.1-5c-0.6-1-0.5-2.3,0.3-3.1    l1.2-1.2l-1.9-1.9l-1.2,1.3c-0.8,0.8-2.1,1-3.1,0.3c-1.5-1-3.2-1.7-5-2.1c-1.2-0.2-2-1.3-2-2.4V6h-2.7v1.8c0,1.2-0.8,2.2-2,2.4    c-1.8,0.4-3.5,1.1-5,2.1c-1,0.6-2.3,0.5-3.1-0.3l-1.2-1.2l-1.9,1.9l1.2,1.2c0.8,0.8,1,2.1,0.3,3.1c-1,1.5-1.7,3.2-2.1,5    c-0.2,1.2-1.3,2-2.4,2h-1.8v2.7h1.8c1.2,0,2.2,0.8,2.4,2c0.4,1.8,1.1,3.5,2.1,5c0.6,1,0.5,2.3-0.3,3.1l-1.2,1.2l1.9,1.9l1.2-1.2    c0.8-0.8,2.1-1,3.1-0.3c1.5,1,3.2,1.7,5,2.1c1.2,0.2,2,1.3,2,2.4V44.5z"/></g><path d="M101.1,38.1c-7.1,0-12.8-5.8-12.8-12.8s5.8-12.8,12.8-12.8s12.8,5.8,12.8,12.8S108.2,38.1,101.1,38.1z M101.1,17.4   c-4.3,0-7.8,3.5-7.8,7.8s3.5,7.8,7.8,7.8s7.8-3.5,7.8-7.8S105.4,17.4,101.1,17.4z"/><g><path d="M41.8,102.3H30.6c-1.4,0-2.5-1.1-2.5-2.5v-4.3c-2-0.6-3.9-1.4-5.7-2.3l-3.1,3.1c-1,1-2.6,1-3.5,0l-7.9-7.9    c-1-1-1-2.6,0-3.5l3.1-3.1c-1-1.8-1.8-3.7-2.3-5.7H4.2c-1.4,0-2.5-1.1-2.5-2.5V62.3c0-1.4,1.1-2.5,2.5-2.5h4.3    c0.6-2,1.4-3.9,2.3-5.7L7.8,51c-1-1-1-2.6,0-3.5l7.9-7.9c1-1,2.6-1,3.5,0l3.1,3.1c1.8-1,3.7-1.8,5.7-2.3v-4.3    c0-1.4,1.1-2.5,2.5-2.5h11.2c1.4,0,2.5,1.1,2.5,2.5v4.4c2,0.6,3.9,1.4,5.7,2.3l3.1-3.1c0.5-0.5,1.1-0.7,1.8-0.7c0,0,0,0,0,0    c0.7,0,1.3,0.3,1.8,0.7l7.9,7.9c1,1,1,2.6,0,3.5l-3.1,3.1c1,1.8,1.8,3.7,2.3,5.7h4.3c1.4,0,2.5,1.1,2.5,2.5v11.2    c0,1.4-1.1,2.5-2.5,2.5h-4.3c-0.6,2-1.4,3.9-2.3,5.7l3.1,3.1c1,1,1,2.6,0,3.5l-7.9,7.9c-1,1-2.6,1-3.5,0L50,93.2    c-1.8,1-3.7,1.8-5.7,2.3v4.3C44.3,101.2,43.2,102.3,41.8,102.3z M33.1,97.3h6.2v-3.8c0-1.2,0.8-2.2,2-2.4c2.8-0.6,5.4-1.7,7.8-3.2    c1-0.6,2.3-0.5,3.1,0.3l2.7,2.7l4.4-4.4l-2.7-2.7c-0.8-0.8-1-2.1-0.3-3.1c1.5-2.4,2.6-5,3.2-7.8c0.2-1.2,1.3-2,2.4-2h3.8v-6.2    h-3.8c-1.2,0-2.2-0.8-2.4-2c-0.6-2.8-1.7-5.4-3.2-7.8c-0.6-1-0.5-2.3,0.3-3.1l2.7-2.7l-4.4-4.4l-2.7,2.7c-0.8,0.8-2.1,1-3.1,0.3    c-2.4-1.5-5-2.6-7.8-3.2c-1.2-0.2-2-1.3-2-2.4v-3.8h-6.2v3.8c0,1.2-0.8,2.2-2,2.4c-2.8,0.6-5.4,1.7-7.8,3.2    c-1,0.6-2.3,0.5-3.1-0.3l-2.7-2.7l-4.4,4.4l2.7,2.7c0.8,0.8,1,2.1,0.3,3.1c-1.5,2.4-2.6,5-3.2,7.8c-0.2,1.2-1.3,2-2.4,2H6.7V71    h3.8c1.2,0,2.2,0.8,2.4,2c0.6,2.8,1.7,5.4,3.2,7.8c0.6,1,0.5,2.3-0.3,3.1l-2.7,2.7l4.4,4.4l2.7-2.7c0.8-0.8,2.1-1,3.1-0.3    c2.4,1.5,5,2.6,7.8,3.2c1.2,0.2,2,1.3,2,2.4V97.3z"/></g><path d="M36.2,85.6c-9.8,0-17.7-7.9-17.7-17.7s7.9-17.7,17.7-17.7s17.7,7.9,17.7,17.7S45.9,85.6,36.2,85.6z M36.2,55.2   c-7,0-12.7,5.7-12.7,12.7s5.7,12.7,12.7,12.7s12.7-5.7,12.7-12.7S43.2,55.2,36.2,55.2z"/></g></svg>