<svg xmlns="http://www.w3.org/2000/svg" xmlns:xlink="http://www.w3.org/1999/xlink" version="1.1" x="0px" y="0px" viewBox="0 0 100 125" enable-background="new 0 0 100 100" xml:space="preserve"><path d="M48.423,25.632v6h-13c-1.654,0-3,1.346-3,3v5c0,0.553,2,0.553,2,0v-5c0-0.551,0.448-1,1-1h28c0.552,0,1,0.449,1,1v5  c0,0.553,2,0.553,2,0v-5c0-1.654-1.346-3-3-3h-13v-6"/><path d="M80.203,64.402h-13v-6h-2v6h-13c-0.767,0-1.459,0.298-1.99,0.772c-0.531-0.475-1.224-0.772-1.99-0.772h-13v-6h-2v6h-13  c-1.654,0-3,1.346-3,3v5c0,0.553,2,0.553,2,0v-5c0-0.551,0.448-1,1-1h28c0.528,0,0.951,0.415,0.987,0.934  c0,0.022-0.007,0.044-0.007,0.066v5c0,0.278,0.506,0.416,1.01,0.414c0.503,0.002,1.01-0.136,1.01-0.414v-5  c0-0.022-0.006-0.042-0.007-0.064c0.035-0.52,0.457-0.936,0.987-0.936h28c0.552,0,1,0.449,1,1v5c0,0.553,2,0.553,2,0v-5  C83.203,65.748,81.857,64.402,80.203,64.402z"/><path d="M55.486,23.375H43.338c-1.887,0-3.422-1.535-3.422-3.422v-7.289c0-1.887,1.535-3.422,3.422-3.422h12.148  c1.887,0,3.422,1.535,3.422,3.422v7.289C58.908,21.84,57.373,23.375,55.486,23.375z M43.338,11.227  c-0.792,0-1.438,0.645-1.438,1.438v7.289c0,0.793,0.645,1.438,1.438,1.438h12.148c0.793,0,1.438-0.645,1.438-1.438v-7.289  c0-0.792-0.645-1.438-1.438-1.438H43.338z"/><path d="M39.497,55.695H27.349c-1.887,0-3.422-1.535-3.422-3.422v-7.288c0-1.887,1.535-3.422,3.422-3.422h12.148  c1.887,0,3.422,1.535,3.422,3.422v7.288C42.919,54.16,41.384,55.695,39.497,55.695z M27.349,43.549  c-0.792,0-1.438,0.645-1.438,1.438v7.287c0,0.793,0.645,1.438,1.438,1.438h12.148c0.792,0,1.438-0.646,1.438-1.438v-7.287  c0-0.792-0.645-1.438-1.438-1.438H27.349z"/><path d="M71.497,55.695H59.35c-1.888,0-3.423-1.535-3.423-3.422v-7.288c0-1.887,1.535-3.422,3.423-3.422h12.147  c1.887,0,3.422,1.535,3.422,3.422v7.288C74.919,54.16,73.384,55.695,71.497,55.695z M59.35,43.549c-0.793,0-1.438,0.645-1.438,1.438  v7.287c0,0.793,0.646,1.438,1.438,1.438h12.147c0.793,0,1.438-0.646,1.438-1.438v-7.287c0-0.792-0.646-1.438-1.438-1.438H59.35z"/><path d="M56.277,88.466H44.129c-1.887,0-3.422-1.534-3.422-3.422v-7.287c0-1.887,1.535-3.422,3.422-3.422h12.148  c1.887,0,3.422,1.535,3.422,3.422v7.287C59.699,86.932,58.164,88.466,56.277,88.466z M44.129,76.318  c-0.792,0-1.438,0.646-1.438,1.438v7.287c0,0.793,0.645,1.438,1.438,1.438h12.148c0.793,0,1.438-0.646,1.438-1.438v-7.287  c0-0.793-0.645-1.438-1.438-1.438H44.129z"/><path d="M88.277,88.466H76.129c-1.887,0-3.422-1.534-3.422-3.422v-7.287c0-1.887,1.535-3.422,3.422-3.422h12.148  c1.887,0,3.422,1.535,3.422,3.422v7.287C91.699,86.932,90.164,88.466,88.277,88.466z M76.129,76.318  c-0.793,0-1.438,0.646-1.438,1.438v7.287c0,0.793,0.645,1.438,1.438,1.438h12.148c0.793,0,1.438-0.646,1.438-1.438v-7.287  c0-0.793-0.645-1.438-1.438-1.438H76.129z"/><path d="M24.297,88.466H12.148c-1.887,0-3.422-1.534-3.422-3.422v-7.287c0-1.887,1.535-3.422,3.422-3.422h12.148  c1.887,0,3.422,1.535,3.422,3.422v7.287C27.719,86.932,26.184,88.466,24.297,88.466z M12.148,76.318  c-0.792,0-1.438,0.646-1.438,1.438v7.287c0,0.793,0.645,1.438,1.438,1.438h12.148c0.793,0,1.438-0.646,1.438-1.438v-7.287  c0-0.793-0.645-1.438-1.438-1.438H12.148z"/></svg>