<svg xmlns="http://www.w3.org/2000/svg" xmlns:xlink="http://www.w3.org/1999/xlink" version="1.1" x="0px" y="0px" viewBox="0 0 100 125" enable-background="new 0 0 100 100" xml:space="preserve"><g><path fill="#000000" d="M77.889,5H12.111C8.189,5,5,8.19,5,12.111v42.667c0,3.921,3.189,7.111,7.111,7.111h15.654l-8.379,20.582   c-0.318,0.783-0.041,1.683,0.664,2.15c0.3,0.2,0.643,0.297,0.982,0.297c0.459,0,0.914-0.177,1.258-0.521l22.508-22.509h33.09   c3.921,0,7.111-3.19,7.111-7.111V12.111C85,8.19,81.81,5,77.889,5z"/></g><g><path fill="#000000" d="M77.889,65.889C84.016,65.889,89,60.904,89,54.777v-39.6c3.395,0.536,6,3.473,6,7.015v42.667   c0,3.92-3.189,7.111-7.111,7.111H72.234l8.379,20.582c0.318,0.783,0.041,1.682-0.664,2.15C79.649,94.902,79.307,95,78.967,95   c-0.459,0-0.914-0.178-1.258-0.521L55.201,71.971H40.374l6.082-6.082H77.889z"/></g></svg>