<svg xmlns="http://www.w3.org/2000/svg" xmlns:xlink="http://www.w3.org/1999/xlink" version="1.1" x="0px" y="0px" viewBox="0 0 128 160" style="enable-background:new 0 0 128 128;" xml:space="preserve"><circle cx="112" cy="8" r="2"/><circle cx="104" cy="8" r="2"/><path d="M96,106c-1.1025162,0-2,0.7524033-2,1.6776962v4.6446075C94,113.2475967,94.8974838,114,96,114  c1.1024857,0,2-0.7524033,2-1.6776962v-4.6446075C98,106.7524033,97.1024857,106,96,106z"/><path d="M32,66c-1.1025124,0-2,0.7524033-2,1.6776962v4.6446075C30,73.2475967,30.8974876,74,32,74  c1.1024895,0,2-0.7524033,2-1.6776962v-4.6446075C34,66.7524033,33.1024895,66,32,66z"/><path d="M80,26c-1.1025162,0-2,0.7523994-2,1.6777V32.3223C78,33.2476006,78.8974838,34,80,34c1.1024857,0,2-0.7523994,2-1.6777  V27.6777C82,26.7523994,81.1024857,26,80,26z"/><path d="M64,66c-1.1025124,0-2,0.7524033-2,1.6776962v4.6446075C62,73.2475967,62.8974876,74,64,74  c1.1024857,0,2-0.7524033,2-1.6776962v-4.6446075C66,66.7524033,65.1024857,66,64,66z"/><path d="M48,86c-1.1025124,0-2,0.7524033-2,1.6776962v4.6446075C46,93.2475967,46.8974876,94,48,94  c1.1024857,0,2-0.7524033,2-1.6776962v-4.6446075C50,86.7524033,49.1024857,86,48,86z"/><path d="M64,106c-1.1025124,0-2,0.7524033-2,1.6776962v4.6446075C62,113.2475967,62.8974876,114,64,114  c1.1024857,0,2-0.7524033,2-1.6776962v-4.6446075C66,106.7524033,65.1024857,106,64,106z"/><path d="M80,66c-1.1025162,0-2,0.7524033-2,1.6776962v4.6446075C78,73.2475967,78.8974838,74,80,74  c1.1024857,0,2-0.7524033,2-1.6776962v-4.6446075C82,66.7524033,81.1024857,66,80,66z"/><path d="M80,86c-1.1025162,0-2,0.7524033-2,1.6776962v4.6446075C78,93.2475967,78.8974838,94,80,94  c1.1024857,0,2-0.7524033,2-1.6776962v-4.6446075C82,86.7524033,81.1024857,86,80,86z"/><path d="M80,46c-1.1025162,0-2,0.7523994-2,1.6777V52.3223C78,53.2476006,78.8974838,54,80,54c1.1024857,0,2-0.7523994,2-1.6777  V47.6777C82,46.7523994,81.1024857,46,80,46z"/><path d="M64,26c-1.1025124,0-2,0.7523994-2,1.6777V32.3223C62,33.2476006,62.8974876,34,64,34c1.1024857,0,2-0.7523994,2-1.6777  V27.6777C66,26.7523994,65.1024857,26,64,26z"/><path d="M16,26c-1.1025114,0-2,0.7523994-2,1.6777V32.3223C14,33.2476006,14.8974886,34,16,34c1.1024876,0,2-0.7523994,2-1.6777  V27.6777C18,26.7523994,17.1024876,26,16,26z"/><path d="M96,66c-1.1025162,0-2,0.7524033-2,1.6776962v4.6446075C94,73.2475967,94.8974838,74,96,74  c1.1024857,0,2-0.7524033,2-1.6776962v-4.6446075C98,66.7524033,97.1024857,66,96,66z"/><path d="M80,106c-1.1025162,0-2,0.7524033-2,1.6776962v4.6446075C78,113.2475967,78.8974838,114,80,114  c1.1024857,0,2-0.7524033,2-1.6776962v-4.6446075C82,106.7524033,81.1024857,106,80,106z"/><path d="M16,66c-1.1025114,0-2,0.7524033-2,1.6776962v4.6446075C14,73.2475967,14.8974886,74,16,74  c1.1024876,0,2-0.7524033,2-1.6776962v-4.6446075C18,66.7524033,17.1024876,66,16,66z"/><path d="M48,46c-1.1025124,0-2,0.7523994-2,1.6777V52.3223C46,53.2476006,46.8974876,54,48,54c1.1024857,0,2-0.7523994,2-1.6777  V47.6777C50,46.7523994,49.1024857,46,48,46z"/><path d="M16,106c-1.1025114,0-2,0.7524033-2,1.6776962v4.6446075C14,113.2475967,14.8974886,114,16,114  c1.1024876,0,2-0.7524033,2-1.6776962v-4.6446075C18,106.7524033,17.1024876,106,16,106z"/><path d="M32,46c-1.1025124,0-2,0.7523994-2,1.6777V52.3223C30,53.2476006,30.8974876,54,32,54c1.1024895,0,2-0.7523994,2-1.6777  V47.6777C34,46.7523994,33.1024895,46,32,46z"/><path d="M112,66c-1.1025162,0-2,0.7524033-2,1.6776962v4.6446075C110,73.2475967,110.8974838,74,112,74  c1.1024857,0,2-0.7524033,2-1.6776962v-4.6446075C114,66.7524033,113.1024857,66,112,66z"/><path d="M120,0H8C3.5995886,0,0,3.6001,0,8v112c0,4.3999023,3.5995886,8,8,8h112c4.400383,0,8-3.6000977,8-8V8  C128,3.6001,124.400383,0,120,0z M22,112.3223038C22,115.4531021,19.308588,118,16,118c-3.3086119,0-6-2.5468979-6-5.6776962  v-4.6446075C10,104.5468979,12.6913881,102,16,102c3.308588,0,6,2.5468979,6,5.6776962V112.3223038z M14,96V84  c0-1.1044998,0.8954887-2,2-2c1.1044884,0,2,0.8955002,2,2v12c0,1.1044998-0.8955116,2-2,2C14.8954887,98,14,97.1044998,14,96z   M22,72.3223038C22,75.4531021,19.308588,78,16,78c-3.3086119,0-6-2.5468979-6-5.6776962v-4.6446075  C10,64.5468979,12.6913881,62,16,62c3.308588,0,6,2.5468979,6,5.6776962V72.3223038z M14,56V44c0-1.1044998,0.8954887-2,2-2  c1.1044884,0,2,0.8955002,2,2v12c0,1.1044998-0.8955116,2-2,2C14.8954887,58,14,57.1044998,14,56z M22,32.3223  C22,35.4530983,19.308588,38,16,38c-3.3086119,0-6-2.5469017-6-5.6777V27.6777C10,24.5468998,12.6913881,22,16,22  c3.308588,0,6,2.5468998,6,5.6777V32.3223z M38,112.3223038C38,115.4531021,35.3085861,118,32,118  c-3.3086128,0-6-2.5468979-6-5.6776962v-4.6446075C26,104.5468979,28.6913872,102,32,102c3.3085861,0,6,2.5468979,6,5.6776962  V112.3223038z M30,96V84c0-1.1044998,0.8954887-2,2-2c1.1044884,0,2,0.8955002,2,2v12c0,1.1044998-0.8955116,2-2,2  C30.8954887,98,30,97.1044998,30,96z M38,72.3223038C38,75.4531021,35.3085861,78,32,78c-3.3086128,0-6-2.5468979-6-5.6776962  v-4.6446075C26,64.5468979,28.6913872,62,32,62c3.3085861,0,6,2.5468979,6,5.6776962V72.3223038z M38,52.3223  C38,55.4530983,35.3085861,58,32,58c-3.3086128,0-6-2.5469017-6-5.6777V47.6777C26,44.5469017,28.6913872,42,32,42  c3.3085861,0,6,2.5469017,6,5.6777V52.3223z M38,32.3223C38,35.4530983,35.3085861,38,32,38c-3.3086128,0-6-2.5469017-6-5.6777  V27.6777C26,24.5468998,28.6913872,22,32,22c3.3085861,0,6,2.5468998,6,5.6777V32.3223z M50,116c0,1.1044998-0.8955116,2-2,2  c-1.1045113,0-2-0.8955002-2-2v-12c0-1.1044998,0.8954887-2,2-2c1.1044884,0,2,0.8955002,2,2V116z M54,92.3223038  C54,95.4531021,51.3085861,98,48,98c-3.3086128,0-6-2.5468979-6-5.6776962v-4.6446075C42,84.5468979,44.6913872,82,48,82  c3.3085861,0,6,2.5468979,6,5.6776962V92.3223038z M54,72.3223038C54,75.4531021,51.3085861,78,48,78  c-3.3086128,0-6-2.5468979-6-5.6776962v-4.6446075C42,64.5468979,44.6913872,62,48,62c3.3085861,0,6,2.5468979,6,5.6776962  V72.3223038z M54,52.3223C54,55.4530983,51.3085861,58,48,58c-3.3086128,0-6-2.5469017-6-5.6777V47.6777  C42,44.5469017,44.6913872,42,48,42c3.3085861,0,6,2.5469017,6,5.6777V52.3223z M54,32.3223C54,35.4530983,51.3085861,38,48,38  c-3.3086128,0-6-2.5469017-6-5.6777V27.6777C42,24.5468998,44.6913872,22,48,22c3.3085861,0,6,2.5468998,6,5.6777V32.3223z   M70,112.3223038C70,115.4531021,67.3085861,118,64,118c-3.3086128,0-6-2.5468979-6-5.6776962v-4.6446075  C58,104.5468979,60.6913872,102,64,102c3.3085861,0,6,2.5468979,6,5.6776962V112.3223038z M62,96V84c0-1.1044998,0.8954887-2,2-2  c1.1044846,0,2,0.8955002,2,2v12c0,1.1044998-0.8955154,2-2,2C62.8954887,98,62,97.1044998,62,96z M70,72.3223038  C70,75.4531021,67.3085861,78,64,78c-3.3086128,0-6-2.5468979-6-5.6776962v-4.6446075C58,64.5468979,60.6913872,62,64,62  c3.3085861,0,6,2.5468979,6,5.6776962V72.3223038z M62,56V44c0-1.1044998,0.8954887-2,2-2c1.1044846,0,2,0.8955002,2,2v12  c0,1.1044998-0.8955154,2-2,2C62.8954887,58,62,57.1044998,62,56z M70,32.3223C70,35.4530983,67.3085861,38,64,38  c-3.3086128,0-6-2.5469017-6-5.6777V27.6777C58,24.5468998,60.6913872,22,64,22c3.3085861,0,6,2.5468998,6,5.6777V32.3223z   M86,112.3223038C86,115.4531021,83.3085861,118,80,118c-3.3086166,0-6-2.5468979-6-5.6776962v-4.6446075  C74,104.5468979,76.6913834,102,80,102c3.3085861,0,6,2.5468979,6,5.6776962V112.3223038z M86,92.3223038  C86,95.4531021,83.3085861,98,80,98c-3.3086166,0-6-2.5468979-6-5.6776962v-4.6446075C74,84.5468979,76.6913834,82,80,82  c3.3085861,0,6,2.5468979,6,5.6776962V92.3223038z M86,72.3223038C86,75.4531021,83.3085861,78,80,78  c-3.3086166,0-6-2.5468979-6-5.6776962v-4.6446075C74,64.5468979,76.6913834,62,80,62c3.3085861,0,6,2.5468979,6,5.6776962  V72.3223038z M86,52.3223C86,55.4530983,83.3085861,58,80,58c-3.3086166,0-6-2.5469017-6-5.6777V47.6777  C74,44.5469017,76.6913834,42,80,42c3.3085861,0,6,2.5469017,6,5.6777V52.3223z M86,32.3223C86,35.4530983,83.3085861,38,80,38  c-3.3086166,0-6-2.5469017-6-5.6777V27.6777C74,24.5468998,76.6913834,22,80,22c3.3085861,0,6,2.5468998,6,5.6777V32.3223z   M102,112.3223038C102,115.4531021,99.3085861,118,96,118c-3.3086166,0-6-2.5468979-6-5.6776962v-4.6446075  C90,104.5468979,92.6913834,102,96,102c3.3085861,0,6,2.5468979,6,5.6776962V112.3223038z M94,96V84c0-1.1044998,0.8954849-2,2-2  c1.1044846,0,2,0.8955002,2,2v12c0,1.1044998-0.8955154,2-2,2C94.8954849,98,94,97.1044998,94,96z M102,72.3223038  C102,75.4531021,99.3085861,78,96,78c-3.3086166,0-6-2.5468979-6-5.6776962v-4.6446075C90,64.5468979,92.6913834,62,96,62  c3.3085861,0,6,2.5468979,6,5.6776962V72.3223038z M102,52.3223C102,55.4530983,99.3085861,58,96,58  c-3.3086166,0-6-2.5469017-6-5.6777V47.6777C90,44.5469017,92.6913834,42,96,42c3.3085861,0,6,2.5469017,6,5.6777V52.3223z   M102,32.3223C102,35.4530983,99.3085861,38,96,38c-3.3086166,0-6-2.5469017-6-5.6777V27.6777C90,24.5468998,92.6913834,22,96,22  c3.3085861,0,6,2.5468998,6,5.6777V32.3223z M118,112.3223038C118,115.4531021,115.3085861,118,112,118  c-3.3086166,0-6-2.5468979-6-5.6776962v-4.6446075C106,104.5468979,108.6913834,102,112,102c3.3085861,0,6,2.5468979,6,5.6776962  V112.3223038z M110,96V84c0-1.1044998,0.8954849-2,2-2c1.1044846,0,2,0.8955002,2,2v12c0,1.1044998-0.8955154,2-2,2  C110.8954849,98,110,97.1044998,110,96z M118,72.3223038C118,75.4531021,115.3085861,78,112,78  c-3.3086166,0-6-2.5468979-6-5.6776962v-4.6446075C106,64.5468979,108.6913834,62,112,62c3.3085861,0,6,2.5468979,6,5.6776962  V72.3223038z M110,56V44c0-1.1044998,0.8954849-2,2-2c1.1044846,0,2,0.8955002,2,2v12c0,1.1044998-0.8955154,2-2,2  C110.8954849,58,110,57.1044998,110,56z M118,32.3223C118,35.4530983,115.3085861,38,112,38c-3.3086166,0-6-2.5469017-6-5.6777  V27.6777C106,24.5468998,108.6913834,22,112,22c3.3085861,0,6,2.5468998,6,5.6777V32.3223z M124,12H4V8c0-2.2055702,1.7938886-4,4-4  h112c2.2060852,0,4,1.7944298,4,4V12z"/><path d="M112,26c-1.1025162,0-2,0.7523994-2,1.6777V32.3223C110,33.2476006,110.8974838,34,112,34c1.1024857,0,2-0.7523994,2-1.6777  V27.6777C114,26.7523994,113.1024857,26,112,26z"/><path d="M48,66c-1.1025124,0-2,0.7524033-2,1.6776962v4.6446075C46,73.2475967,46.8974876,74,48,74  c1.1024857,0,2-0.7524033,2-1.6776962v-4.6446075C50,66.7524033,49.1024857,66,48,66z"/><path d="M32,26c-1.1025124,0-2,0.7523994-2,1.6777V32.3223C30,33.2476006,30.8974876,34,32,34c1.1024895,0,2-0.7523994,2-1.6777  V27.6777C34,26.7523994,33.1024895,26,32,26z"/><path d="M96,26c-1.1025162,0-2,0.7523994-2,1.6777V32.3223C94,33.2476006,94.8974838,34,96,34c1.1024857,0,2-0.7523994,2-1.6777  V27.6777C98,26.7523994,97.1024857,26,96,26z"/><path d="M96,46c-1.1025162,0-2,0.7523994-2,1.6777V52.3223C94,53.2476006,94.8974838,54,96,54c1.1024857,0,2-0.7523994,2-1.6777  V47.6777C98,46.7523994,97.1024857,46,96,46z"/><path d="M32,106c-1.1025124,0-2,0.7524033-2,1.6776962v4.6446075C30,113.2475967,30.8974876,114,32,114  c1.1024895,0,2-0.7524033,2-1.6776962v-4.6446075C34,106.7524033,33.1024895,106,32,106z"/><path d="M48,26c-1.1025124,0-2,0.7523994-2,1.6777V32.3223C46,33.2476006,46.8974876,34,48,34c1.1024857,0,2-0.7523994,2-1.6777  V27.6777C50,26.7523994,49.1024857,26,48,26z"/><path d="M112,106c-1.1025162,0-2,0.7524033-2,1.6776962v4.6446075C110,113.2475967,110.8974838,114,112,114  c1.1024857,0,2-0.7524033,2-1.6776962v-4.6446075C114,106.7524033,113.1024857,106,112,106z"/></svg>