<svg xmlns="http://www.w3.org/2000/svg" xmlns:xlink="http://www.w3.org/1999/xlink" version="1.1" x="0px" y="0px" viewBox="0 0 65 81.25" enable-background="new 0 0 65 65" xml:space="preserve"><g><polygon points="31.8,2.8 31.8,8.3 33.2,8.3 33.2,2.8 35.2,4.8 36.2,3.7 32.5,0 28.8,3.7 29.8,4.8  "/><rect x="31.8" y="9.8" width="1.5" height="1.5"/><rect x="31.8" y="12.7" width="1.5" height="1.5"/><polygon points="33.2,62.2 33.2,56.7 31.8,56.7 31.8,62.2 29.8,60.2 28.8,61.3 32.5,65 36.2,61.3 35.2,60.2  "/><rect x="31.8" y="53.7" width="1.5" height="1.5"/><rect x="31.8" y="50.8" width="1.5" height="1.5"/><polygon points="14.8,11 14.8,9.5 9.5,9.5 9.5,14.8 11,14.8 11,12 14.8,15.9 15.9,14.8 12,11  "/><rect x="16.2" y="16.2" transform="matrix(0.7077 0.7065 -0.7065 0.7077 16.9401 -7.0263)" width="1.5" height="1.5"/><rect x="18.3" y="18.3" transform="matrix(-0.7077 -0.7065 0.7065 -0.7077 19.0766 45.9818)" width="1.5" height="1.5"/><polygon points="54,50.2 54,53 50.2,49.1 49.1,50.2 53,54 50.2,54 50.2,55.5 55.5,55.5 55.5,50.2  "/><rect x="45.2" y="45.2" transform="matrix(-0.7076 -0.7066 0.7066 -0.7076 45.9902 110.9424)" width="1.5" height="1.5"/><rect x="47.3" y="47.3" transform="matrix(-0.7078 -0.7064 0.7064 -0.7078 48.1018 115.9751)" width="1.5" height="1.5"/><polygon points="8.3,31.8 2.8,31.8 4.8,29.8 3.7,28.8 0,32.5 3.7,36.2 4.8,35.2 2.8,33.2 8.3,33.2  "/><rect x="9.8" y="31.8" width="1.5" height="1.5"/><rect x="12.7" y="31.8" width="1.5" height="1.5"/><polygon points="61.3,28.8 60.2,29.8 62.2,31.8 56.7,31.8 56.7,33.2 62.2,33.2 60.2,35.2 61.3,36.2 65,32.5  "/><rect x="50.8" y="31.8" width="1.5" height="1.5"/><rect x="53.7" y="31.8" width="1.5" height="1.5"/><polygon points="14.8,49.1 11,53 11,50.2 9.5,50.2 9.5,55.5 14.8,55.5 14.8,54 12,54 15.9,50.2  "/><rect x="18.3" y="45.2" transform="matrix(-0.7077 -0.7065 0.7065 -0.7077 6.071103e-002 91.9264)" width="1.5" height="1.5"/><rect x="16.2" y="47.3" transform="matrix(-0.7078 -0.7064 0.7064 -0.7078 -4.9678 94.0215)" width="1.5" height="1.5"/><polygon points="50.2,15.9 54,12 54,14.8 55.5,14.8 55.5,9.5 50.2,9.5 50.2,11 53,11 49.1,14.8  "/><rect x="47.3" y="16.2" transform="matrix(-0.7078 -0.7064 0.7064 -0.7078 70.0562 62.9042)" width="1.5" height="1.5"/><rect x="45.2" y="18.3" transform="matrix(0.7078 0.7064 -0.7064 0.7078 26.8865 -26.8977)" width="1.5" height="1.5"/><path d="M45.8,40.4V24.5l-5.3-5.3H24.6v2.5h-3v21.7H43v-3H45.8z M41,21.7l2.4,2.4H41V21.7z M26.1,20.7h13.4v4.9h4.9v13.4H26.1V20.7   z M41.5,41.9H23.1V23.2h1.5v17.2h16.9V41.9z"/><rect x="28.2" y="27.1" width="9.5" height="1.5"/><rect x="28.2" y="30.9" width="14.1" height="1.5"/><rect x="28.2" y="34.7" width="14.1" height="1.5"/></g></svg>