<svg xmlns="http://www.w3.org/2000/svg" xmlns:xlink="http://www.w3.org/1999/xlink" version="1.1" x="0px" y="0px" viewBox="0 0 100 125" enable-background="new 0 0 100 100" xml:space="preserve"><path d="M2.5,94.623h17v-32h-17V94.623z M4.5,64.623h13v28h-13V64.623z"/><path d="M28.5,94.623h17V40.789h-17V94.623z M30.5,42.789h13v49.834h-13V42.789z"/><path d="M54.5,94.623h17V51.956h-17V94.623z M56.5,53.956h13v38.667h-13V53.956z"/><path d="M80.5,25.165v69.459h17V25.165H80.5z M95.5,92.624h-13V27.165h13V92.624z"/><path d="M10.942,57.37c3.423,0,6.208-2.785,6.208-6.208c0-1.763-0.742-3.352-1.925-4.483l16.585-13.611  c1.118,1.641,3.001,2.72,5.132,2.72c2.228,0,4.179-1.183,5.275-2.95l14.618,6.834c-0.062,0.35-0.1,0.707-0.1,1.074  c0,3.423,2.784,6.208,6.207,6.208c3.424,0,6.209-2.785,6.209-6.208c0-0.886-0.189-1.727-0.525-2.49L84.15,15.525  c1.14,1.383,2.864,2.267,4.792,2.267c3.424,0,6.209-2.785,6.209-6.208s-2.785-6.208-6.209-6.208c-3.423,0-6.207,2.785-6.207,6.208  c0,0.694,0.119,1.359,0.33,1.983L67.428,36.464c-1.132-1.184-2.722-1.926-4.485-1.926c-2.347,0-4.393,1.309-5.447,3.235  l-14.512-6.785c0.105-0.453,0.167-0.923,0.167-1.408c0-3.423-2.785-6.208-6.208-6.208s-6.208,2.785-6.208,6.208  c0,0.556,0.08,1.092,0.218,1.605L13.497,45.51c-0.78-0.354-1.644-0.556-2.555-0.556c-3.423,0-6.208,2.785-6.208,6.208  C4.734,54.585,7.519,57.37,10.942,57.37z M88.942,7.376c2.321,0,4.209,1.888,4.209,4.208s-1.888,4.208-4.209,4.208  c-2.319,0-4.207-1.888-4.207-4.208S86.623,7.376,88.942,7.376z M62.942,36.538c2.321,0,4.209,1.888,4.209,4.208  s-1.888,4.208-4.209,4.208c-2.319,0-4.207-1.888-4.207-4.208S60.623,36.538,62.942,36.538z M36.942,25.372  c2.32,0,4.208,1.888,4.208,4.208s-1.888,4.208-4.208,4.208s-4.208-1.888-4.208-4.208S34.622,25.372,36.942,25.372z M10.942,46.954  c2.32,0,4.208,1.888,4.208,4.208s-1.888,4.208-4.208,4.208s-4.208-1.888-4.208-4.208S8.622,46.954,10.942,46.954z"/></svg>