<svg xmlns="http://www.w3.org/2000/svg" xmlns:xlink="http://www.w3.org/1999/xlink" version="1.1" x="0px" y="0px" viewBox="0 0 90 112.5" style="enable-background:new 0 0 90 90;" xml:space="preserve"><path d="M80.0213623,18.1879883l-0.5722656-1.3847656l-7.2265625,7.2265625  c-0.8007813,0.8007813-1.8652344,1.2412109-2.9970703,1.2412109s-2.1962891-0.4404297-2.9970703-1.2412109  s-1.2412109-1.8652344-1.2412109-2.9970703c0-1.1328125,0.4404297-2.1972656,1.2412109-2.9980469l7.2265625-7.2265625  l-1.3847656-0.5722656c-5.4990234-2.2666016-11.7587891-1.0175781-15.9589844,3.1835938  c-3.9941406,3.9951172-5.3232422,9.8925781-3.4755859,15.1914063L41.3299561,39.9165039L21.480835,20.0673828l1.6147461-1.6147461  l-2.2734375-5.1708984L13.6571045,8.862793l-4.7939453,4.7949219l4.4169922,7.1650391l5.171875,2.2734375l1.6147461-1.6147461  l19.8491211,19.8491211L28.6102295,52.6362305c-5.3017578-1.8486328-11.1982422-0.5175781-15.1914063,3.4755859  c-4.2001953,4.2001953-5.4501953,10.4648438-3.1835938,15.9589844l0.5722656,1.3847656l7.2265625-7.2265625  c1.6523438-1.6533203,4.3427734-1.6523438,5.9951172,0c1.6523438,1.6533203,1.6513672,4.3427734-0.0009766,5.9951172  l-7.2255859,7.2255859l1.3847656,0.5722656c1.8203125,0.75,3.7236328,1.1152344,5.609375,1.1152344  c3.8076172,0,7.5400391-1.4892578,10.3486328-4.2978516c3.9951172-3.9951172,5.3242188-9.8916016,3.4755859-15.1914063  l6.590332-6.590332l23.8256836,23.8256836c1.4951172,1.4951172,3.4589844,2.2431641,5.4228516,2.2431641  s3.9277344-0.7480469,5.4228516-2.2431641c3.1923828-3.1933594,2.828125-8.0175781-0.8857422-11.7314453L55.0565186,44.2124023  l6.5908203-6.5908203c5.2998047,1.8486328,11.1962891,0.5214844,15.1904297-3.4755859  C81.0379639,29.9467773,82.2879639,23.6831055,80.0213623,18.1879883z M18.0047607,20.715332l-3.3496094-1.4726563  l-3.2607422-5.2880859l2.5595703-2.5585938l5.2880859,3.2607422l1.4726563,3.3486328L18.0047607,20.715332z M35.2850342,61.1547852  l0.2451172,0.6123047c1.8857422,4.7119141,0.7871094,10.0722656-2.7988281,13.6582031  c-3.2607422,3.2597656-7.9599609,4.4599609-12.3242188,3.2480469l5.0351563-5.0351563  c2.4326172-2.4326172,2.4326172-6.390625,0-8.8232422c-2.4316406-2.4316406-6.390625-2.4316406-8.8222656,0l-5.0361328,5.0361328  c-1.2128906-4.3632813-0.0117188-9.0644531,3.2490234-12.3251953c3.5859375-3.5849609,8.9453125-4.6855469,13.6582031-2.7988281  l0.6123047,0.2451172l12.2270508-12.2270508l2.3837891,2.3837891L33.5692139,55.2739258l1.4140625,1.4140625l7.112915-7.112915  l2.3845215,2.3840332L35.2850342,61.1547852z M48.1600342,43.5112305l2.3842773,2.3842773l-4.6494141,4.6494141  l-2.3842773-2.3833008L48.1600342,43.5112305z M76.5828857,68.565918c2.8808594,2.8818359,3.2451172,6.5429688,0.8857422,8.9033203  c-2.2109375,2.2109375-5.8066406,2.2109375-8.0175781,0L45.6258545,53.644043l8.0166016-8.0175781L76.5828857,68.565918z   M61.7674561,35.5307617l-0.6132813-0.2451172l-9.1958008,9.1958008l-2.3842773-2.3842773l7.1132813-7.1132813l-1.4140625-1.4140625  L45.1282959,43.7148438l-2.3837891-2.3837891l12.2270508-12.2270508l-0.2451172-0.6123047  c-1.8847656-4.7109375-0.7861328-10.0722656,2.7988281-13.6582031c3.2607422-3.2597656,7.9628906-4.4619141,12.3251953-3.2490234  l-5.0361328,5.0361328c-2.4326172,2.4326172-2.4326172,6.390625,0,8.8232422c2.4316406,2.4316406,6.390625,2.4316406,8.8222656,0  l5.0361328-5.0361328c1.2128906,4.3632813,0.0117188,9.0644531-3.2490234,12.3242188  C71.8397217,36.3168945,66.4783936,37.4165039,61.7674561,35.5307617z"/><rect x="58.0839691" y="50.7290115" transform="matrix(0.7071068 -0.7071068 0.7071068 0.7071068 -24.4737682 59.0840416)" width="1.9997864" height="16.7109222"/><rect x="66.5624847" y="66.5694504" transform="matrix(0.7068611 -0.7073523 0.7073523 0.7068611 -27.9860249 67.5958862)" width="1.9997864" height="1.9880474"/><rect x="69.8364105" y="69.8432388" transform="matrix(0.7071068 -0.7071068 0.7071068 0.7071068 -29.3417892 70.8364792)" width="1.9997864" height="1.9873568"/><rect x="73.109848" y="73.1166763" transform="matrix(0.7071068 -0.7071068 0.7071068 0.7071068 -30.697691 74.1099167)" width="1.9997864" height="1.9873568"/><rect x="44.1287842" y="15.1538086" width="2" height="2.1298828"/><rect x="44.1287842" y="20.112793" width="2" height="2.1289063"/><rect x="44.1287842" y="68.0161133" width="2" height="2.1298828"/><rect x="44.1287842" y="72.9750977" width="2" height="2.1289063"/><rect x="72.9744873" y="44.1293945" width="2.1289063" height="2"/><rect x="68.0155029" y="44.1293945" width="2.1298828" height="2"/><rect x="20.1121826" y="44.1293945" width="2.1289063" height="2"/><rect x="15.1531982" y="44.1293945" width="2.1298828" height="2"/></svg>