<svg xmlns="http://www.w3.org/2000/svg" data-name="Layer 1" viewBox="0 0 1024 1280" x="0px" y="0px"><title>icon-01</title><path fill="#000000" d="M512 1024a512 512 0 1 1 512-512 512 512 0 0 1-512 512z m0-965.485714a453.485714 453.485714 0 1 0 453.485714 453.485714A453.485714 453.485714 0 0 0 512 58.514286z"/><path fill="#000000" d="M424.228571 737.28a73.142857 73.142857 0 0 1-36.571428-9.947429 72.118857 72.118857 0 0 1-36.571429-63.341714V360.009143a73.142857 73.142857 0 0 1 109.714286-63.341714l263.314286 151.990857a73.142857 73.142857 0 0 1 0 126.683428l-263.314286 151.990857a73.142857 73.142857 0 0 1-36.571429 9.947429z m0-392.045714a14.628571 14.628571 0 0 0-7.314285 2.048 14.628571 14.628571 0 0 0-7.314286 12.726857v303.981714a14.628571 14.628571 0 0 0 7.314286 12.726857 14.628571 14.628571 0 0 0 14.628571 0l263.314286-151.990857a14.628571 14.628571 0 0 0 0-25.453714l-263.314286-151.990857a14.628571 14.628571 0 0 0-7.314286-2.048z"/></svg>